<?xml version="1.0" encoding="UTF-8" standalone="no"?>
<svg
   id="Ebene_1"
   data-name="Ebene 1"
   viewBox="0 0 971.82 375.03"
   version="1.1"
   sodipodi:docname="LockInAmpPic.svg"
   inkscape:export-filename="LockInAmpPic.png"
   inkscape:export-xdpi="96"
   inkscape:export-ydpi="96"
   inkscape:version="1.2.2 (732a01da63, 2022-12-09)"
   xmlns:inkscape="http://www.inkscape.org/namespaces/inkscape"
   xmlns:sodipodi="http://sodipodi.sourceforge.net/DTD/sodipodi-0.dtd"
   xmlns="http://www.w3.org/2000/svg"
   xmlns:svg="http://www.w3.org/2000/svg">
  <sodipodi:namedview
     id="namedview310"
     pagecolor="#ffffff"
     bordercolor="#000000"
     borderopacity="0.25"
     inkscape:showpageshadow="2"
     inkscape:pageopacity="0.0"
     inkscape:pagecheckerboard="0"
     inkscape:deskcolor="#d1d1d1"
     showgrid="false"
     inkscape:zoom="1.5527567"
     inkscape:cx="322.00795"
     inkscape:cy="187.40863"
     inkscape:window-width="1920"
     inkscape:window-height="974"
     inkscape:window-x="-11"
     inkscape:window-y="-11"
     inkscape:window-maximized="1"
     inkscape:current-layer="Ebene_1" />
  <defs
     id="defs5">
    <clipPath
       id="clippath">
      <rect
         x="36.28"
         y="42.25"
         width="470.55"
         height="121.41"
         fill="none"
         id="rect2" />
    </clipPath>
  </defs>
  <g
     id="g19">
    <path
       d="M77.62,300.55c3.09,6.3,5.49,8.62,9.33,8.62"
       fill="none"
       stroke="#000"
       stroke-linecap="round"
       stroke-miterlimit="10"
       stroke-width="2"
       id="path7" />
    <path
       d="M86.96,309.16c15.81,0,23.18-70.38,38.99-70.38s23.18,70.38,38.99,70.38"
       fill="none"
       stroke="#000"
       stroke-linecap="round"
       stroke-miterlimit="10"
       stroke-width="2"
       id="path9" />
    <path
       d="M164.92,309.16c15.81,0,23.18-70.38,38.99-70.38s23.18,70.38,38.99,70.38"
       fill="none"
       stroke="#000"
       stroke-linecap="round"
       stroke-miterlimit="10"
       stroke-width="2"
       id="path11" />
    <path
       d="M242.89,309.16c15.81,0,23.18-70.38,38.99-70.38s23.18,70.38,38.99,70.38"
       fill="none"
       stroke="#000"
       stroke-linecap="round"
       stroke-miterlimit="10"
       stroke-width="2"
       id="path13" />
    <path
       d="M320.86,309.16c15.81,0,23.18-70.38,38.99-70.38s23.18,70.38,38.99,70.38"
       fill="none"
       stroke="#000"
       stroke-linecap="round"
       stroke-miterlimit="10"
       stroke-width="2"
       id="path15" />
    <path
       d="M398.82,309.16c15.81,0,23.18-70.38,38.99-70.38s23.18,70.38,38.99,70.38"
       fill="none"
       stroke="#000"
       stroke-linecap="round"
       stroke-miterlimit="10"
       stroke-width="2"
       id="path17" />
  </g>
  <g
     id="g33">
    <path
       d="M80.05,131.29c2.74,6.3,4.88,8.62,8.29,8.62"
       fill="none"
       stroke="#000"
       stroke-linecap="round"
       stroke-miterlimit="10"
       stroke-width="2"
       id="path21" />
    <path
       d="M88.34,139.91c14.05,0,20.59-70.38,34.64-70.38s20.59,70.38,34.64,70.38"
       fill="none"
       stroke="#000"
       stroke-linecap="round"
       stroke-miterlimit="10"
       stroke-width="2"
       id="path23" />
    <path
       d="M157.62,139.91c14.05,0,20.59-70.38,34.64-70.38s20.59,70.38,34.64,70.38"
       fill="none"
       stroke="#000"
       stroke-linecap="round"
       stroke-miterlimit="10"
       stroke-width="2"
       id="path25" />
    <path
       d="M226.89,139.91c14.05,0,20.59-70.38,34.64-70.38s20.59,70.38,34.64,70.38"
       fill="none"
       stroke="#000"
       stroke-linecap="round"
       stroke-miterlimit="10"
       stroke-width="2"
       id="path27" />
    <path
       d="M296.17,139.91c14.05,0,20.59-70.38,34.64-70.38s20.59,70.38,34.64,70.38"
       fill="none"
       stroke="#000"
       stroke-linecap="round"
       stroke-miterlimit="10"
       stroke-width="2"
       id="path29" />
    <path
       d="M365.44,139.91c14.05,0,20.59-70.38,34.64-70.38s20.59,70.38,34.64,70.38"
       fill="none"
       stroke="#000"
       stroke-linecap="round"
       stroke-miterlimit="10"
       stroke-width="2"
       id="path31" />
  </g>
  <g
     id="g45">
    <path
       d="M285.17,182.87c4.19,0,7.46,2.02,7.46,6.46s-3.26,6.46-7.46,6.46h-6.3v9.76h-1.66v-22.69h7.97Zm5.73,6.46c0-3.52-2.53-4.86-5.82-4.86h-6.21v9.73h6.21c3.3,0,5.82-1.34,5.82-4.86Z"
       id="path35" />
    <path
       d="M298.19,182.39v10.11c.9-2.05,3.26-3.39,5.5-3.39,3.65,0,5.73,2.3,5.73,5.89v10.56h-1.6v-10.46c0-2.82-1.34-4.48-4.22-4.48-3.9,0-5.41,3.49-5.41,6.94v8h-1.6v-23.17h1.6Z"
       id="path37" />
    <path
       d="M313.68,201.11c0-2.85,2.18-4.61,5.38-4.83l5.89-.42v-1.41c0-2.69-1.95-3.84-4.42-3.84s-4.38,1.15-4.54,3.55h-1.6c.22-3.3,2.88-5.06,6.08-5.06,3.65,0,6.08,1.79,6.08,5.47v7.9c0,1.09,.16,1.73,1.25,1.73,.13,0,.32,0,.45-.03v1.41c-.22,.06-.51,.1-.77,.1-1.98,0-2.53-1.5-2.53-3.2-.86,2.27-3.3,3.52-5.76,3.52-3.1,0-5.5-1.89-5.5-4.9Zm11.26-2.94v-.83l-5.73,.35c-2.46,.16-3.9,1.5-3.9,3.39,0,2.24,1.73,3.46,4,3.46,4.03,0,5.63-3.26,5.63-6.37Z"
       id="path39" />
    <path
       d="M330.93,200.69h1.63c.26,2.62,2.34,3.78,4.96,3.78s4.64-1.15,4.64-3.33c0-1.41-.99-2.59-2.94-2.85l-3.1-.42c-2.69-.35-4.51-1.63-4.51-4.06,0-2.85,2.75-4.7,5.76-4.7,3.46,0,5.95,1.98,6.05,4.86h-1.6c-.22-2.3-2.11-3.36-4.45-3.36s-4.13,1.25-4.13,3.04c0,1.31,.7,2.3,3.1,2.62l3.04,.42c3.01,.42,4.42,2.43,4.42,4.35,0,3.26-2.94,4.96-6.27,4.96-3.81,0-6.43-2.02-6.59-5.31Z"
       id="path41" />
    <path
       d="M349.2,203.76c-1.31-1.54-2.11-3.71-2.11-6.14,0-2.02,.32-4,1.6-5.7,1.38-1.82,3.26-2.82,5.6-2.82,4.42,0,7.07,3.52,7.07,7.78,0,.38,0,.61-.03,1.06h-12.64c.06,3.55,2.14,6.53,5.73,6.53,2.53,0,4.51-1.66,4.9-3.71h1.66c-.48,3.01-3.36,5.25-6.56,5.25-2.3,0-4.16-1.02-5.22-2.24Zm10.5-7.26c-.06-3.04-1.95-5.89-5.41-5.89s-5.5,2.75-5.57,5.89h10.98Z"
       id="path43" />
  </g>
  <rect
     x="530.03"
     y="1"
     width="238.11"
     height="353.8"
     fill="none"
     stroke="#000"
     stroke-linecap="round"
     stroke-linejoin="round"
     stroke-width="2"
     id="rect47" />
  <polyline
     points="37.81 104.89 37.81 103.35 38.92 102.57 38.92 100.25 40.03 99.48 40.03 96.39 41.15 95.61 41.15 92.52 42.26 91.74 42.26 89.42 43.38 88.65 43.38 87.1 44.49 86.32 44.49 83.23 45.6 82.46 45.6 80.91 46.72 80.14 46.72 77.81 47.84 77.05 47.84 76.27 48.95 75.5 48.95 73.94 51.17 72.4 51.17 70.85 52.29 70.08 53.41 69.31 55.64 69.31 56.74 70.08 57.86 70.85 58.97 71.63 60.09 72.4 60.09 73.17 61.21 73.94"
     fill="none"
     stroke="#3d4898"
     stroke-linejoin="round"
     stroke-width="3"
     id="polyline49" />
  <polyline
     points="419.3 250.23 420.56 249.46 420.56 246.37 421.82 245.59 421.82 243.27 423.08 242.5 423.08 239.4 424.34 238.63 424.34 236.31 425.6 235.54 425.6 233.22 426.86 232.44 426.86 230.12 428.12 229.35 428.12 227.8 429.39 227.03 429.39 225.48 430.64 224.71 430.64 223.15 433.16 221.61 433.16 220.07 434.42 219.29 435.68 218.52 436.94 217.74 439.46 217.74 440.72 218.52 443.23 220.07 443.23 221.61 445.77 223.15 445.77 224.71 447.02 225.48 447.02 227.03 448.28 227.8 448.28 229.35 449.54 230.12 449.54 232.44 450.8 233.22 450.8 235.54 452.06 236.31 452.06 238.63 453.33 239.4 453.33 242.5 454.59 243.27 454.59 245.59 455.84 246.37 455.84 248.69 457.1 249.46 457.1 252.55 458.36 253.32 458.36 255.65 459.62 256.42 459.62 260.29 460.88 261.06 460.88 263.38 462.14 264.15 462.14 266.48 463.4 267.25 463.4 269.57 464.67 270.35 464.67 272.67 465.92 273.44 465.92 275.76 467.19 276.53 467.19 278.08 468.44 278.85 468.44 280.39 469.7 281.16 469.7 282.7 470.97 283.48 470.97 284.25 473.49 285.8 473.49 286.56 474.74 287.34 476 288.11 478.53 288.11 479.79 287.34 482.3 285.8 482.3 284.25 484.82 282.7 484.82 281.16 486.09 280.39 486.09 278.08 487.34 277.3 487.34 275.76 488.6 274.98 488.6 273.44 489.86 272.67 489.86 270.35 491.13 269.57 491.13 267.25 492.38 266.48 492.38 263.38 493.64 262.62 493.64 260.29 494.91 259.52 494.91 257.2 496.16 256.42 496.16 253.32"
     fill="none"
     stroke="#3d4898"
     stroke-linejoin="round"
     stroke-width="3"
     id="polyline51" />
  <polyline
     points="28.67 253.32 28.67 251.78 29.94 251.01 29.94 248.69 31.19 247.91 31.19 244.82 32.44 244.04 32.44 240.95 33.71 240.17 33.71 237.86 34.97 237.08 34.97 235.54 36.23 234.76 36.23 231.67 37.49 230.89 37.49 229.35 38.75 228.57 38.75 226.25 40.01 225.48 40.01 224.71 41.27 223.94 41.27 222.38 43.78 220.84 43.78 219.29 45.05 218.52 46.31 217.74 48.84 217.74 50.08 218.52 51.35 219.29 52.61 220.07 53.88 220.84 53.88 221.61 55.14 222.38"
     fill="none"
     stroke="#3d4898"
     stroke-linejoin="round"
     stroke-width="3"
     id="polyline53" />
  <g
     clip-path="url(#clippath)"
     id="g81">
    <polyline
       points="467.5 101.79 467.5 124.23 468.77 112.63 468.77 49.19 468.77 118.04 470.03 120.36 470.03 123.46 470.03 97.93 471.28 101.79 471.28 128.1 471.28 77.04 471.28 121.91 472.54 108.76 472.54 117.26 472.54 101.02 473.81 110.31 473.81 111.08 473.81 101.02 475.06 116.49 475.06 153.63 475.06 79.36 475.06 116.49 476.32 93.28 476.32 73.18 476.32 131.19 477.58 111.85 477.58 143.57 477.58 76.27 477.58 118.82 478.84 97.93 478.84 133.51 478.84 80.14 478.84 120.36 480.1 111.08 480.1 88.65 481.36 114.17 481.36 137.38 481.36 76.27 481.36 120.36 482.62 121.91 482.62 126.56 482.62 92.52 482.62 106.44 483.88 118.04 483.88 71.63 483.88 131.97 485.14 99.48 485.14 135.83 485.14 89.42 485.14 100.25 486.4 84.78 486.4 126.56 486.4 113.4 487.66 94.84 487.66 143.57 487.66 121.91 488.93 96.38 488.93 79.36 488.93 121.91 490.18 139.7 490.18 86.33 490.18 92.52 491.44 112.63 491.44 115.72 491.44 84.01 491.44 105.67 492.71 92.52 492.71 138.15 492.71 84.01 492.71 99.48 493.96 159.81 493.96 103.34 493.96 105.67 495.23 106.44 495.23 85.55 495.23 121.14 496.48 125.78 496.48 83.23 496.48 104.89 497.74 114.17 497.74 119.59 497.74 81.68 499 71.63 499 122.68 499 106.44 500.26 97.15 500.26 129.64 500.26 109.53 501.52 100.25 501.52 108.76 501.52 87.1 502.78 85.55 502.78 107.21 502.78 105.67 504.04 117.26 504.04 124.23 504.04 82.46 505.3 142.02 505.3 101.02"
       fill="none"
       opacity=".7"
       stroke="red"
       stroke-linejoin="round"
       stroke-width="3"
       id="polyline55" />
    <polyline
       points="427.18 137.38 427.18 92.52 428.43 102.57 428.43 125 428.43 99.48 429.7 85.55 429.7 83.23 429.7 128.87 430.97 103.35 430.97 131.19 430.97 94.06 430.97 114.95 432.22 109.53 432.22 122.68 432.22 80.14 432.22 109.53 433.48 115.72 433.48 66.21 433.48 103.35 434.74 113.4 434.74 91.74 434.74 95.61 436 113.4 436 66.21 436 121.14 437.26 77.81 437.26 121.14 438.53 82.46 438.53 104.89 438.53 99.48 439.77 113.4 439.77 60.8 439.77 94.06 441.04 94.83 441.04 61.57 441.04 115.72 442.3 104.89 442.3 123.46 442.3 80.14 443.56 87.1 443.56 128.87 443.56 89.42 444.82 106.44 444.82 66.99 444.82 104.12 446.08 90.97 446.08 137.38 447.34 76.27 447.34 62.34 447.34 142.8 448.6 106.44 448.6 88.65 448.6 123.46 449.86 102.57 449.86 77.04 449.86 116.49 451.12 95.61 451.12 119.59 451.12 66.21 451.12 102.57 452.38 130.42 452.38 75.5 452.38 96.38 453.64 80.91 453.64 129.65 453.64 109.53 454.9 106.44 454.9 132.74 454.9 99.48 454.9 100.25 456.16 93.28 456.16 120.36 456.16 83.23 457.42 87.88 457.42 137.38 457.42 87.1 458.68 104.89 458.68 117.27 458.68 96.38 459.94 90.97 459.94 107.99 459.94 83.23 459.94 104.89 461.2 121.91 461.2 122.68 461.2 94.83 462.46 99.48 462.46 67.76 462.46 124.23 463.72 125.78 463.72 77.04 463.72 87.1 464.98 113.4 464.98 118.81 464.98 90.97 466.24 109.53 466.24 162.14 466.24 70.08 466.24 112.63 467.5 101.8"
       fill="none"
       opacity=".7"
       stroke="red"
       stroke-linejoin="round"
       stroke-width="3"
       id="polyline57" />
    <polyline
       points="402.75 80.91 402.75 97.93 404.02 111.08 404.02 111.86 404.02 73.18 405.27 122.68 405.27 141.25 405.27 90.97 406.53 103.35 406.53 141.25 406.53 71.63 406.53 87.87 407.79 107.21 407.79 115.72 407.79 94.06 407.79 107.21 409.05 123.46 409.05 96.38 410.32 97.15 410.32 149.76 410.32 92.52 411.57 94.83 411.57 78.59 411.57 131.19 412.83 97.15 412.83 87.1 412.83 101.79 414.09 76.27 414.09 102.57 414.09 84.78 415.35 77.81 415.35 107.21 415.35 87.1 416.61 83.23 416.61 127.33 417.87 92.52 417.87 119.59 419.13 95.61 419.13 107.99 419.13 87.87 419.13 104.89 420.39 108.76 420.39 129.64 420.39 85.55 420.39 114.95 421.65 92.52 421.65 82.46 421.65 100.25 422.92 114.95 422.92 84 422.92 105.67 424.17 94.06 424.17 148.21 424.17 91.74 425.43 97.93 425.43 136.61 425.43 91.74 425.43 102.57 426.69 70.08 426.69 112.63 426.69 100.25 427.95 101.02 427.95 120.36 427.95 84.78 429.21 86.32 429.21 127.33 429.21 107.99 430.47 128.1 430.47 90.19 430.47 97.93 431.73 98.7 431.73 87.1 431.73 94.83 432.99 97.93 432.99 125 432.99 85.55 432.99 108.76 434.26 114.95 434.26 132.74 434.26 87.1 435.52 106.44 435.52 61.57 435.52 121.14 436.77 127.33 436.77 92.52 436.77 113.4 438.03 107.99 438.03 139.7 438.03 103.35 439.29 111.86 439.29 67.76 440.56 108.76 440.56 56.93 440.56 139.7 441.82 114.95 441.82 128.1 441.82 101.02 441.82 112.63 443.07 77.81 443.07 137.38"
       fill="none"
       opacity=".7"
       stroke="red"
       stroke-linejoin="round"
       stroke-width="3"
       id="polyline59" />
    <polyline
       points="365.78 76.27 365.78 107.99 367.04 89.42 367.04 118.82 367.04 76.27 367.04 99.48 368.31 125 368.31 140.47 368.31 88.65 368.31 121.91 369.57 100.25 369.57 133.51 369.57 83.23 369.57 111.08 370.82 104.89 370.82 114.17 370.82 100.25 370.82 108.76 372.09 117.27 372.09 126.55 372.09 87.87 372.09 111.08 373.34 125.77 373.34 135.06 373.34 93.28 373.34 127.33 374.61 94.84 374.61 114.95 374.61 66.21 374.61 82.46 375.87 75.5 375.87 131.19 377.12 111.08 377.12 71.63 377.12 87.1 378.38 113.4 378.38 128.1 378.38 87.1 379.64 107.21 379.64 125.77 379.64 110.31 380.9 78.59 380.9 118.04 380.9 77.81 380.9 102.57 382.17 113.4 382.17 129.64 382.17 58.47 382.17 111.08 383.42 97.15 383.42 122.68 383.42 84.01 383.42 104.12 384.69 100.25 384.69 102.57 384.69 73.18 384.69 92.51 385.95 82.46 385.95 133.51 387.2 94.06 387.2 121.14 387.2 70.08 387.2 118.04 388.47 101.02 388.47 80.91 388.47 108.76 389.73 105.67 389.73 134.29 389.73 84.78 389.73 118.82 390.99 118.04 390.99 128.1 390.99 79.36 390.99 91.74 392.25 84.01 392.25 118.04 392.25 75.5 392.25 116.49 393.51 92.51 393.51 123.46 393.51 81.68 393.51 113.4 394.77 116.49 394.77 119.59 394.77 110.31 394.77 115.72 396.02 95.61 396.02 131.96 396.02 74.72 396.02 98.7 397.29 95.61 397.29 135.83 397.29 87.1 397.29 88.65 398.55 114.17 398.55 107.21 398.55 121.14 399.81 83.23 399.81 126.55 399.81 80.91"
       fill="none"
       opacity=".7"
       stroke="red"
       stroke-linejoin="round"
       stroke-width="3"
       id="polyline61" />
    <polyline
       points="326.3 132.74 326.3 80.91 326.3 108.76 327.56 115.72 327.56 128.09 327.56 85.55 327.56 110.31 328.82 118.82 328.82 100.25 328.82 119.59 330.08 98.7 330.08 95.61 330.08 126.55 331.34 98.7 331.34 106.44 331.34 74.72 331.34 94.06 332.6 101.02 332.6 104.12 332.6 76.27 332.6 102.57 333.86 93.28 333.86 107.21 333.86 80.91 333.86 93.28 335.12 103.35 335.12 118.04 335.12 76.27 336.38 70.85 336.38 117.27 336.38 97.16 337.64 79.36 337.64 119.59 337.64 76.27 337.64 103.35 338.9 98.7 338.9 121.91 338.9 89.42 338.9 94.83 340.16 70.85 340.16 138.93 340.16 107.21 341.43 118.04 341.43 61.57 341.43 97.16 342.68 106.44 342.68 137.38 342.68 66.99 342.68 108.76 343.94 76.27 343.94 131.97 345.2 117.27 345.2 120.36 345.2 91.74 346.46 111.08 346.46 121.91 346.46 100.25 346.46 109.53 347.72 89.42 347.72 117.27 347.72 116.49 348.98 94.06 348.98 131.2 348.98 86.32 348.98 104.89 350.24 107.21 350.24 96.39 351.5 133.51 351.5 97.16 351.5 126.55 352.77 101.79 352.77 122.68 352.77 87.1 354.02 96.39 354.02 130.42 354.02 83.23 355.28 142.8 355.28 148.98 355.28 96.39 355.28 135.06 356.54 90.97 356.54 87.1 356.54 112.63 357.8 98.7 357.8 138.16 357.8 97.16 359.06 102.57 359.06 152.85 359.06 77.05 359.06 121.14 360.33 117.27 360.33 122.68 360.33 89.42 360.33 93.28 361.57 108.76 361.57 74.72 361.57 128.87 362.84 110.31 362.84 122.68 362.84 76.27"
       fill="none"
       opacity=".7"
       stroke="red"
       stroke-linejoin="round"
       stroke-width="3"
       id="polyline63" />
    <polyline
       points="287.99 77.04 287.99 112.62 289.25 124.23 289.25 126.55 289.25 91.74 289.25 113.4 290.51 108.76 290.51 121.91 290.51 106.44 290.51 119.59 291.77 90.19 291.77 119.59 291.77 115.72 293.03 115.72 293.03 141.25 293.03 101.02 293.03 121.91 294.29 113.4 294.29 80.91 294.29 86.32 295.54 97.93 295.54 68.53 296.81 108.76 296.81 97.93 296.81 121.91 298.07 118.04 298.07 127.33 298.07 76.27 298.07 94.84 299.33 138.93 299.33 83.23 299.33 94.84 300.59 82.46 300.59 118.82 300.59 106.44 301.86 108.76 301.86 118.04 301.86 90.96 301.86 112.62 303.11 97.15 303.11 66.99 303.11 122.68 304.37 117.27 304.37 69.31 304.37 132.74 305.64 112.62 305.64 121.14 305.64 69.31 305.64 90.96 306.89 77.81 306.89 113.4 306.89 76.27 306.89 87.87 308.15 98.7 308.15 125 308.15 77.81 308.15 98.7 309.41 118.04 309.41 127.33 309.41 94.84 309.41 100.25 310.66 120.36 310.66 80.91 310.66 140.47 311.93 104.89 311.93 122.68 311.93 65.44 311.93 98.7 313.19 91.74 313.19 128.1 313.19 78.59 313.19 100.25 314.46 109.53 314.46 122.68 314.46 103.35 314.46 111.85 315.71 105.67 315.71 96.38 315.71 135.06 316.97 86.32 316.97 122.68 316.97 118.82 318.23 104.12 318.23 124.23 318.23 107.21 319.49 104.89 319.49 122.68 319.49 91.74 320.76 109.53 320.76 128.87 320.76 68.53 320.76 121.14 322.01 107.99 322.01 125.77 322.01 107.21 323.27 112.62 323.27 81.68 323.27 119.59"
       fill="none"
       opacity=".7"
       stroke="red"
       stroke-linejoin="round"
       stroke-width="3"
       id="polyline65" />
    <polyline
       points="245.89 87.87 245.89 115.72 247.14 108.76 247.14 127.33 247.14 87.87 247.14 90.19 248.4 95.61 248.4 125 248.4 87.87 248.4 97.15 249.66 102.57 249.66 83.23 249.66 92.52 250.92 102.57 250.92 70.08 250.92 87.1 252.19 124.23 252.19 84.01 252.19 111.85 253.45 143.57 253.45 94.83 253.45 113.4 254.7 110.31 254.7 123.46 254.7 70.85 254.7 118.82 255.96 100.25 255.96 132.74 255.96 66.99 255.96 99.48 257.22 98.7 257.22 114.17 257.22 85.55 257.22 97.93 258.49 135.06 258.49 95.61 258.49 119.59 259.74 81.68 259.74 115.72 259.74 80.91 261 101.02 261 85.55 261 140.48 262.26 122.68 262.26 67.76 262.26 136.61 263.52 136.61 263.52 90.97 263.52 114.17 264.79 112.63 264.79 124.23 264.79 99.48 266.05 89.42 266.05 113.4 266.05 76.27 266.05 112.63 267.3 73.95 267.3 113.4 267.3 87.87 268.56 84.78 268.56 114.95 268.56 112.63 269.82 138.15 269.82 99.48 269.82 115.72 271.09 115.72 271.09 126.56 271.09 77.04 272.35 114.17 272.35 125.78 272.35 69.31 272.35 83.23 273.6 90.97 273.6 115.72 273.6 102.57 274.86 89.42 274.86 121.91 276.13 123.46 276.13 84.78 277.39 123.46 277.39 138.93 277.39 127.33 278.65 106.44 278.65 75.5 278.65 126.56 279.91 101.79 279.91 96.38 279.91 122.68 281.16 76.27 281.16 118.04 282.42 75.5 282.42 154.4 282.42 107.21 283.69 106.44 283.69 115.72 283.69 60.8 283.69 104.89 284.95 108.76 284.95 133.51 284.95 77.04"
       fill="none"
       opacity=".7"
       stroke="red"
       stroke-linejoin="round"
       stroke-width="3"
       id="polyline67" />
    <polyline
       points="205.07 130.42 205.07 60.8 205.07 118.82 206.34 104.12 206.34 142.8 206.34 82.46 206.34 85.55 207.59 43.78 207.59 114.95 208.86 136.61 208.86 74.72 208.86 102.57 210.11 75.5 210.11 129.64 210.11 90.19 211.37 92.51 211.37 117.26 211.37 94.84 212.63 91.74 212.63 104.12 212.63 83.23 212.63 87.1 213.9 114.95 213.9 126.55 213.9 85.55 213.9 107.21 215.16 98.7 215.16 110.31 215.16 88.65 216.41 88.65 216.41 97.93 216.41 70.08 217.67 125.77 217.67 82.46 217.67 95.61 218.93 76.27 218.93 121.91 218.93 94.84 220.19 95.61 220.19 146.67 221.45 128.1 221.45 90.96 221.45 135.83 222.71 99.48 222.71 121.91 222.71 84.01 222.71 90.19 223.97 105.67 223.97 71.63 223.97 120.36 225.24 113.4 225.24 80.14 225.24 111.85 226.49 86.32 226.49 107.21 226.49 101.02 227.75 71.63 227.75 114.17 229.01 92.51 229.01 128.1 229.01 75.5 229.01 101.79 230.27 146.67 230.27 91.74 230.27 115.72 231.53 50.74 231.53 110.31 232.79 90.19 232.79 78.59 232.79 104.89 234.06 104.89 234.06 97.15 234.06 129.64 235.31 111.85 235.31 102.57 235.31 128.1 236.57 125 236.57 96.38 236.57 138.15 237.83 125 237.83 89.42 239.1 128.87 239.1 90.96 240.36 135.06 240.36 143.57 240.36 103.34 240.36 105.67 241.61 97.15 241.61 135.83 241.61 90.19 241.61 118.82 242.87 86.32 242.87 119.59 242.87 92.51"
       fill="none"
       opacity=".7"
       stroke="red"
       stroke-linejoin="round"
       stroke-width="3"
       id="polyline69" />
    <polyline
       points="166.84 104.89 166.84 140.47 166.84 83.23 166.84 103.35 168.11 130.42 168.11 93.28 169.36 104.12 169.36 73.94 169.36 106.44 170.62 117.27 170.62 71.63 170.62 92.52 171.88 97.16 171.88 114.95 171.88 90.97 171.88 104.12 173.15 104.89 173.15 125.78 173.15 82.46 174.4 68.54 174.4 134.29 174.4 101.02 175.66 121.14 175.66 132.74 175.66 73.94 175.66 102.57 176.93 123.46 176.93 91.74 176.93 109.53 178.19 127.32 178.19 107.21 178.19 114.17 179.44 103.35 179.44 132.74 179.44 98.7 179.44 106.44 180.7 93.28 180.7 128.09 180.7 80.91 181.96 101.02 181.96 141.25 181.96 126.55 183.23 101.79 183.23 129.65 183.23 70.08 183.23 120.36 184.49 133.51 184.49 145.89 184.49 94.83 184.49 107.99 185.75 104.12 185.75 138.93 185.75 78.59 185.75 111.85 187.01 117.27 187.01 150.53 187.01 83.23 187.01 92.52 188.27 102.57 188.27 128.87 188.27 91.74 188.27 111.08 189.53 90.97 189.53 120.36 189.53 77.82 189.53 103.35 190.79 81.68 190.79 130.42 190.79 70.08 190.79 101.02 192.05 76.27 192.05 131.2 192.05 101.79 193.31 94.06 193.31 109.53 193.31 65.44 193.31 73.17 194.56 94.83 194.56 117.27 194.56 86.32 195.82 90.97 195.82 128.87 195.82 114.17 197.09 95.61 197.09 126.55 197.09 77.05 197.09 80.14 198.35 103.35 198.35 82.46 198.35 121.91 199.61 145.89 199.61 87.87 199.61 104.89 200.86 92.52 200.86 120.36 200.86 90.97 200.86 94.06 202.13 111.85 202.13 130.42"
       fill="none"
       opacity=".7"
       stroke="red"
       stroke-linejoin="round"
       stroke-width="3"
       id="polyline71" />
    <polyline
       points="126.02 117.27 126.02 73.17 126.02 90.97 127.28 104.89 127.28 73.95 127.28 129.65 128.53 91.74 128.53 134.29 128.53 120.36 129.79 106.44 129.79 110.31 129.79 92.52 131.05 89.42 131.05 138.93 131.05 83.23 131.05 99.48 132.32 85.55 132.32 120.36 132.32 112.63 133.58 90.97 133.58 131.96 133.58 68.54 133.58 86.32 134.83 84 134.83 112.63 134.83 90.19 136.09 98.7 136.09 105.66 136.09 83.23 136.09 104.89 137.36 91.74 137.36 103.35 137.36 94.06 138.62 111.85 138.62 83.23 138.62 125 139.88 79.36 139.88 120.36 139.88 97.93 141.13 97.15 141.13 114.17 141.13 92.52 141.13 107.21 142.39 115.72 142.39 89.42 142.39 104.89 143.66 117.27 143.66 120.36 143.66 105.66 143.66 109.53 144.92 96.39 144.92 118.81 144.92 70.85 144.92 101.8 146.18 116.49 146.18 92.52 146.18 130.42 147.43 150.53 147.43 93.28 147.43 94.06 148.7 86.32 148.7 109.53 148.7 64.66 148.7 99.48 149.96 97.15 149.96 49.97 149.96 126.55 151.22 78.59 151.22 139.7 151.22 121.14 152.48 101.8 152.48 112.63 152.48 72.4 153.73 97.15 153.73 87.1 153.73 110.31 155 89.42 155 137.38 156.26 78.59 156.26 119.59 157.52 121.91 157.52 87.1 157.52 107.21 158.78 84.78 158.78 124.23 158.78 98.7 160.04 121.14 160.04 101.02 160.04 101.8 161.29 100.25 161.29 118.04 161.29 85.55 161.29 107.99 162.56 110.31 162.56 119.59 162.56 73.17 162.56 104.12 163.82 118.81 163.82 86.32 163.82 111.85"
       fill="none"
       opacity=".7"
       stroke="red"
       stroke-linejoin="round"
       stroke-width="3"
       id="polyline73" />
    <polyline
       points="85.19 94.83 85.19 108.76 86.45 147.44 86.45 91.74 86.45 97.15 87.71 108.76 87.71 143.57 88.96 97.93 88.96 128.1 88.96 51.52 88.96 100.25 90.23 97.15 90.23 104.12 90.23 75.49 90.23 103.35 91.49 98.7 91.49 106.44 91.49 83.23 91.49 89.42 92.75 114.17 92.75 125.78 92.75 89.42 92.75 113.4 94.01 72.4 94.01 126.55 95.26 123.46 95.26 78.59 96.53 90.19 96.53 142.03 96.53 75.49 96.53 116.49 97.79 108.76 97.79 112.63 97.79 94.83 97.79 100.25 99.05 69.31 99.05 127.33 99.05 94.83 100.31 90.19 100.31 77.04 100.31 117.27 101.57 120.36 101.57 82.46 101.57 124.23 102.83 103.35 102.83 130.42 102.83 97.15 102.83 114.95 104.09 97.93 104.09 115.72 104.09 83.23 104.09 98.7 105.35 88.65 105.35 122.68 105.35 107.21 106.61 104.89 106.61 90.19 106.61 118.82 107.87 129.64 107.87 146.67 107.87 93.29 109.13 98.7 109.13 111.86 109.13 94.06 109.13 100.25 110.39 117.27 110.39 121.91 110.39 77.04 111.65 138.15 111.65 56.93 111.65 80.14 112.91 139.7 112.91 73.18 112.91 109.53 114.17 96.38 114.17 120.36 114.17 107.21 115.42 116.49 115.42 118.04 115.42 79.37 115.42 87.1 116.69 94.83 116.69 93.29 116.69 128.1 117.95 83.23 117.95 108.76 117.95 101.79 119.21 112.63 119.21 121.14 119.21 80.91 119.21 85.55 120.47 77.81 120.47 107.21 121.73 111.86 121.73 96.38 121.73 107.99 122.99 142.79 122.99 90.97"
       fill="none"
       opacity=".7"
       stroke="red"
       stroke-linejoin="round"
       stroke-width="3"
       id="polyline75" />
    <polyline
       points="47.89 106.44 47.89 97.93 47.89 131.96 49.15 115.72 49.15 78.59 49.15 95.61 50.41 82.46 50.41 116.49 51.67 118.82 51.67 123.46 51.67 94.83 51.67 115.72 52.93 128.87 52.93 65.44 52.93 114.95 54.19 94.06 54.19 111.08 54.19 72.4 54.19 101.02 55.45 119.59 55.45 124.23 55.45 102.57 56.71 88.65 56.71 104.12 56.71 84.78 57.98 107.21 57.98 70.86 57.98 128.1 59.23 131.19 59.23 101.79 59.23 108.76 60.49 87.87 60.49 75.49 60.49 113.4 61.75 64.67 61.75 123.46 61.75 73.95 63.01 106.44 63.01 64.67 64.27 80.14 64.27 123.46 64.27 76.27 64.27 112.63 65.53 115.72 65.53 89.42 65.53 117.27 66.79 86.32 66.79 110.31 66.79 71.63 66.79 101.79 68.05 95.61 68.05 118.82 68.05 117.27 69.31 102.57 69.31 89.42 69.31 127.33 70.58 139.7 70.58 97.93 70.58 126.55 71.83 136.61 71.83 108.76 71.83 125 73.09 96.38 73.09 121.91 73.09 73.18 74.35 103.35 74.35 128.1 74.35 98.7 74.35 125.78 75.61 117.27 75.61 74.72 75.61 92.52 76.88 80.14 76.88 152.85 76.88 74.72 78.12 114.17 78.12 126.55 78.12 75.49 79.39 86.32 79.39 101.02 79.39 62.34 79.39 82.46 80.65 101.79 80.65 121.13 80.65 92.52 81.91 87.1 81.91 126.55 83.18 99.48 83.18 112.63 83.18 80.14 83.18 88.65 84.43 113.4 84.43 82.46 84.43 152.08 85.69 112.63 85.69 74.72 85.69 98.7 86.95 104.89 86.95 127.33 86.95 94.83"
       fill="none"
       opacity=".7"
       stroke="red"
       stroke-linejoin="round"
       stroke-width="3"
       id="polyline77" />
    <polyline
       points="37.81 75.5 37.81 107.99 39.08 84.01 39.08 103.34 39.08 98.7 40.33 104.12 40.33 117.26 40.33 83.23 40.33 109.53 41.59 104.89 41.59 124.23 41.59 77.81 41.59 91.74 42.85 130.42 42.85 77.04 42.85 125 44.11 73.95 44.11 123.46 44.11 97.93 45.37 105.67 45.37 96.38 45.37 111.08 46.63 114.17 46.63 122.68 46.63 103.34 46.63 117.26 47.89 106.44"
       fill="none"
       stroke="red"
       stroke-linejoin="round"
       stroke-width="3"
       id="polyline79" />
  </g>
  <rect
     x="2"
     y="39.48"
     width="100.26"
     height="301.7"
     fill="#fff"
     id="rect83" />
  <rect
     x="2"
     y="39.48"
     width="100.26"
     height="301.7"
     fill="none"
     stroke="#fff"
     stroke-miterlimit="10"
     stroke-width="4"
     id="rect85" />
  <rect
     x="407.14"
     y="49.2"
     width="112.37"
     height="270.32"
     fill="#fff"
     id="rect87" />
  <rect
     x="407.14"
     y="49.2"
     width="112.37"
     height="249.64"
     fill="none"
     stroke="#fff"
     stroke-miterlimit="10"
     stroke-width="4"
     id="rect89" />
  <line
     x1="7.82"
     y1="139.91"
     x2="157.62"
     y2="139.91"
     fill="none"
     stroke="#000"
     stroke-linecap="round"
     stroke-linejoin="round"
     stroke-width="2"
     id="line91" />
  <line
     x1="203.83"
     y1="238.79"
     x2="203.83"
     y2="83.23"
     fill="none"
     stroke="#000"
     stroke-linecap="round"
     stroke-linejoin="round"
     stroke-width="2"
     id="line93" />
  <line
     x1="261.86"
     y1="273.98"
     x2="261.86"
     y2="69.31"
     fill="none"
     stroke="#000"
     stroke-linecap="round"
     stroke-linejoin="round"
     stroke-width="2"
     id="line95" />
  <line
     x1="7.82"
     y1="69.53"
     x2="123.48"
     y2="69.53"
     fill="none"
     stroke="#000"
     stroke-linecap="round"
     stroke-linejoin="round"
     stroke-width="2"
     id="line97" />
  <g
     id="g117">
    <path
       d="M22.18,167.13H11.43l-2.72,7.14h-1.76l8.8-22.69h2.02l8.9,22.69h-1.73l-2.75-7.14Zm-.61-1.54l-4.83-12.48-4.74,12.48h9.57Z"
       id="path99" />
    <path
       d="M29.7,158.26h1.47l.13,3.14c.74-2.14,2.69-3.58,5.02-3.58,2.75,0,4.35,1.41,4.99,3.46,.86-1.98,2.59-3.46,5.28-3.46,3.74,0,5.31,2.46,5.31,5.89v10.56h-1.6v-10.37c0-2.82-1.09-4.58-3.87-4.58-3.01,0-4.77,2.66-4.77,5.89v9.06h-1.66v-10.37c0-2.82-1.22-4.58-3.87-4.58-3.07,0-4.83,2.88-4.83,6.3v8.64h-1.6v-16Z"
       id="path101" />
    <path
       d="M57.44,158.26h1.47l.13,3.04c.9-2.11,3.26-3.49,5.47-3.49,1.89,0,3.3,.61,4.38,1.54,1.86,1.57,2.69,4.03,2.69,6.88s-.8,5.18-2.53,6.78c-1.09,1.02-2.59,1.7-4.51,1.7-2.34,0-4.61-1.31-5.5-3.36v9.28h-1.6v-22.37Zm10.69,13.44c1.28-1.38,1.82-3.39,1.82-5.44,0-2.27-.64-4.42-2.18-5.73-.8-.7-1.89-1.15-3.3-1.15s-2.53,.54-3.36,1.31c-1.47,1.41-2.11,3.36-2.11,5.57,0,2.37,.58,4.22,2.08,5.6,.83,.77,1.95,1.28,3.46,1.28s2.75-.54,3.58-1.44Z"
       id="path103" />
    <path
       d="M76.19,171.06v-19.97h1.6v19.9c0,1.09,.32,1.92,1.66,1.92,.64,0,.93-.03,1.38-.1v1.44c-.35,.1-.77,.19-1.44,.19-2.05,0-3.2-1.06-3.2-3.39Z"
       id="path105" />
    <path
       d="M86.05,151.58v2.37h-2.18v-2.37h2.18Zm-.26,6.69v16h-1.63v-16h1.63Z"
       id="path107" />
    <path
       d="M93.15,170.1v-10.37h-3.78v-1.47h3.78v-4.42l1.6-.38v4.8h5.02v1.47h-5.02v10.14c0,1.76,.54,3.1,2.88,3.1,.86,0,1.54-.1,2.37-.29v1.41c-.8,.26-1.6,.38-2.5,.38-3.14,0-4.35-1.82-4.35-4.38Z"
       id="path109" />
    <path
       d="M103.46,168.6v-10.34h1.6v10.24c0,2.78,1.38,4.64,4.19,4.64,3.71,0,5.25-2.98,5.25-6.56v-8.32h1.6v16h-1.47l-.13-3.01c-.9,2.11-2.94,3.46-5.34,3.46-3.62,0-5.7-2.53-5.7-6.11Z"
       id="path111" />
    <path
       d="M123.46,173.18c-1.86-1.57-2.69-4.13-2.69-6.88s.83-5.09,2.56-6.72c1.12-1.06,2.69-1.76,4.67-1.76,2.59,0,4.58,1.44,5.31,3.23v-9.95h1.63v23.17h-1.5l-.13-3.04c-.9,2.14-3.23,3.49-5.44,3.49-1.89,0-3.33-.61-4.42-1.54Zm7.81-1.34c1.5-1.38,2.08-3.36,2.08-5.57,0-2.37-.54-4.22-2.05-5.6-.83-.77-1.95-1.28-3.46-1.28s-2.72,.54-3.58,1.44c-1.28,1.34-1.86,3.39-1.86,5.44,0,2.27,.64,4.45,2.18,5.73,.83,.7,1.95,1.15,3.33,1.15s2.53-.54,3.36-1.31Z"
       id="path113" />
    <path
       d="M141.7,172.47c-1.31-1.54-2.11-3.71-2.11-6.14,0-2.02,.32-4,1.6-5.7,1.38-1.82,3.26-2.82,5.6-2.82,4.42,0,7.07,3.52,7.07,7.78,0,.38,0,.61-.03,1.06h-12.64c.06,3.55,2.14,6.53,5.73,6.53,2.53,0,4.51-1.66,4.9-3.71h1.66c-.48,3.01-3.36,5.25-6.56,5.25-2.3,0-4.16-1.02-5.22-2.24Zm10.5-7.26c-.06-3.04-1.95-5.89-5.41-5.89s-5.5,2.75-5.57,5.89h10.98Z"
       id="path115" />
  </g>
  <g
     id="g125">
    <line
       x1="45.37"
       y1="80.3"
       x2="45.37"
       y2="129.15"
       fill="none"
       stroke="#000"
       stroke-miterlimit="10"
       stroke-width="2"
       id="line119" />
    <polygon
       points="37.93 82.49 45.41 69.53 52.89 82.49 37.93 82.49"
       id="polygon121" />
    <polygon
       points="37.93 126.96 45.41 139.91 52.89 126.96 37.93 126.96"
       id="polygon123" />
  </g>
  <g
     id="g133">
    <line
       x1="251.09"
       y1="194.21"
       x2="214.59"
       y2="194.21"
       fill="none"
       stroke="#000"
       stroke-miterlimit="10"
       stroke-width="2"
       id="line127" />
    <polygon
       points="248.9 186.77 261.86 194.25 248.9 201.73 248.9 186.77"
       id="polygon129" />
    <polygon
       points="216.78 186.77 203.83 194.25 216.78 201.73 216.78 186.77"
       id="polygon131" />
  </g>
  <g
     id="g139">
    <line
       x1="407.09"
       y1="101.02"
       x2="519.26"
       y2="101.02"
       fill="none"
       stroke="#000"
       stroke-linecap="round"
       stroke-linejoin="round"
       stroke-width="2"
       id="line135" />
    <polygon
       points="517.08 108.46 530.03 100.98 517.08 93.5 517.08 108.46"
       id="polygon137" />
  </g>
  <g
     id="g145">
    <line
       x1="407.14"
       y1="268.3"
       x2="519.26"
       y2="268.3"
       fill="none"
       stroke="#000"
       stroke-linecap="round"
       stroke-linejoin="round"
       stroke-width="2"
       id="line141" />
    <polygon
       points="517.08 275.74 530.03 268.26 517.08 260.78 517.08 275.74"
       id="polygon143" />
  </g>
  <g
     id="g151">
    <line
       x1="768.14"
       y1="101.02"
       x2="959.08"
       y2="101.02"
       fill="none"
       stroke="#000"
       stroke-miterlimit="10"
       stroke-width="2"
       id="line147" />
    <polygon
       points="956.89 108.45 969.84 100.98 956.89 93.5 956.89 108.45"
       id="polygon149" />
  </g>
  <g
     id="g185">
    <path
       d="M98.56,6.68V29.37h-1.7V6.68h1.7Z"
       id="path153" />
    <path
       d="M104.9,13.37h1.47l.13,3.07c.83-2.21,3.33-3.52,5.57-3.52,3.65,0,5.66,2.43,5.66,5.98v10.46h-1.6v-10.3c0-2.69-1.38-4.58-4.22-4.58-3.55,0-5.41,2.94-5.41,6.5v8.38h-1.6V13.37Z"
       id="path155" />
    <path
       d="M123.49,13.37h1.47l.13,3.04c.9-2.11,3.26-3.49,5.47-3.49,1.89,0,3.3,.61,4.38,1.54,1.86,1.57,2.69,4.03,2.69,6.88s-.8,5.18-2.53,6.78c-1.09,1.02-2.59,1.7-4.51,1.7-2.34,0-4.61-1.31-5.5-3.36v9.28h-1.6V13.37Zm10.69,13.44c1.28-1.38,1.82-3.39,1.82-5.44,0-2.27-.64-4.42-2.18-5.73-.8-.7-1.89-1.15-3.3-1.15s-2.53,.54-3.36,1.31c-1.47,1.41-2.11,3.36-2.11,5.57,0,2.37,.58,4.22,2.08,5.6,.83,.77,1.95,1.28,3.46,1.28s2.75-.54,3.58-1.44Z"
       id="path157" />
    <path
       d="M142.34,23.71V13.37h1.6v10.24c0,2.78,1.38,4.64,4.19,4.64,3.71,0,5.25-2.98,5.25-6.56V13.37h1.6v16h-1.47l-.13-3.01c-.9,2.11-2.94,3.46-5.34,3.46-3.62,0-5.7-2.53-5.7-6.11Z"
       id="path159" />
    <path
       d="M162.56,25.21V14.84h-3.78v-1.47h3.78v-4.42l1.6-.38v4.8h5.02v1.47h-5.02v10.14c0,1.76,.54,3.1,2.88,3.1,.86,0,1.54-.1,2.37-.29v1.41c-.8,.26-1.6,.38-2.5,.38-3.14,0-4.35-1.82-4.35-4.38Z"
       id="path161" />
    <path
       d="M179.2,22.84h1.79c.38,3.26,2.88,5.38,6.59,5.38s6.56-1.86,6.56-5.06c0-2.14-1.7-3.94-4.42-4.32l-3.84-.54c-3.46-.48-5.89-2.27-5.89-5.7,0-3.68,3.71-6.37,7.74-6.37,4.38,0,7.52,2.75,7.81,6.46h-1.7c-.45-3.2-3.01-4.86-6.18-4.86-3.33,0-5.95,1.95-5.95,4.7s1.89,3.65,4.32,4l3.9,.54c3.49,.48,5.92,2.88,5.92,6.02,0,4.03-3.55,6.72-8.29,6.72s-8.19-2.82-8.38-6.98Z"
       id="path163" />
    <path
       d="M202.4,6.68v2.37h-2.18v-2.37h2.18Zm-.26,6.69v16h-1.63V13.37h1.63Z"
       id="path165" />
    <path
       d="M206.69,31.64c0-1.66,1.09-3.1,2.82-3.58-1.22-.26-2.11-1.31-2.11-2.5,0-1.34,.93-2.34,2.24-2.82-1.15-.96-1.86-2.4-1.86-4.19,0-3.46,2.75-5.63,5.98-5.63,1.44,0,2.75,.42,3.84,1.12,.38-1.41,1.7-2.21,3.14-2.21,.19,0,.45,.03,.61,.06v1.34c-.16-.03-.42-.03-.61-.03-1.15,0-1.98,.64-2.21,1.73,.8,.93,1.28,2.14,1.28,3.62,0,3.46-2.72,5.54-6.05,5.54-1.22,0-2.34-.26-3.26-.77-.86,.35-1.66,.96-1.66,1.92,0,1.47,1.6,1.66,2.88,1.66h3.3c2.46,0,4,.42,5.09,1.44,.77,.74,1.22,1.6,1.22,2.94,0,3.58-3.74,4.9-7.55,4.9s-7.07-1.38-7.07-4.54Zm13.02-.29c0-2.3-2.08-2.94-4.58-2.94h-4.29c-1.44,.35-2.66,1.22-2.66,3.07,0,2.5,2.78,3.26,5.6,3.26,3.04,0,5.92-.77,5.92-3.39Zm-1.5-12.8c0-2.66-1.95-4.22-4.45-4.22s-4.42,1.57-4.42,4.22,1.92,4.13,4.42,4.13,4.45-1.5,4.45-4.13Z"
       id="path167" />
    <path
       d="M225.34,13.37h1.47l.13,3.07c.83-2.21,3.33-3.52,5.57-3.52,3.65,0,5.66,2.43,5.66,5.98v10.46h-1.6v-10.3c0-2.69-1.38-4.58-4.22-4.58-3.55,0-5.41,2.94-5.41,6.5v8.38h-1.6V13.37Z"
       id="path169" />
    <path
       d="M242.62,24.92c0-2.85,2.18-4.61,5.38-4.83l5.89-.42v-1.41c0-2.69-1.95-3.84-4.42-3.84s-4.38,1.15-4.54,3.55h-1.6c.22-3.3,2.88-5.06,6.08-5.06,3.65,0,6.08,1.79,6.08,5.47v7.9c0,1.09,.16,1.73,1.25,1.73,.13,0,.32,0,.45-.03v1.41c-.22,.06-.51,.1-.77,.1-1.98,0-2.53-1.5-2.53-3.2-.86,2.27-3.3,3.52-5.76,3.52-3.1,0-5.5-1.89-5.5-4.9Zm11.26-2.94v-.83l-5.73,.35c-2.46,.16-3.9,1.5-3.9,3.39,0,2.24,1.73,3.46,4,3.46,4.03,0,5.63-3.26,5.63-6.37Z"
       id="path171" />
    <path
       d="M261.44,26.17V6.2h1.6V26.1c0,1.09,.32,1.92,1.66,1.92,.64,0,.93-.03,1.38-.1v1.44c-.35,.1-.77,.19-1.44,.19-2.05,0-3.2-1.06-3.2-3.39Z"
       id="path173" />
    <path
       d="M275.65,6.68l7.2,20.54,7.1-20.54h1.76l-8.06,22.69h-1.7l-8.06-22.69h1.76Z"
       id="path175" />
    <path
       d="M293.09,37.19h.95c.15,1.53,1.36,2.2,2.89,2.2s2.71-.67,2.71-1.94c0-.82-.58-1.51-1.72-1.66l-1.81-.24c-1.57-.21-2.63-.95-2.63-2.37,0-1.66,1.6-2.74,3.36-2.74,2.02,0,3.47,1.16,3.53,2.84h-.93c-.13-1.34-1.23-1.96-2.59-1.96s-2.41,.73-2.41,1.77c0,.77,.41,1.34,1.81,1.53l1.77,.24c1.75,.24,2.58,1.42,2.58,2.54,0,1.9-1.72,2.89-3.66,2.89-2.22,0-3.75-1.18-3.84-3.1Z"
       id="path177" />
    <path
       d="M303.92,19.03c0-4.99,1.82-10.56,5.28-14.43l.99,.77c-3.14,4.03-4.77,8.42-4.77,13.66s1.63,9.63,4.77,13.66l-.99,.77c-3.46-3.87-5.28-9.44-5.28-14.43Z"
       id="path179" />
    <path
       d="M315.44,25.21V14.84h-3.78v-1.47h3.78v-4.42l1.6-.38v4.8h5.02v1.47h-5.02v10.14c0,1.76,.54,3.1,2.88,3.1,.86,0,1.54-.1,2.37-.29v1.41c-.8,.26-1.6,.38-2.5,.38-3.14,0-4.35-1.82-4.35-4.38Z"
       id="path181" />
    <path
       d="M323.79,32.7c3.14-4.03,4.77-8.42,4.77-13.66s-1.63-9.63-4.77-13.66l.99-.77c3.46,3.87,5.28,9.44,5.28,14.43s-1.82,10.56-5.28,14.43l-.99-.77Z"
       id="path183" />
  </g>
  <g
     id="g197">
    <path
       d="M395.21,151.33v22.69h-1.89l-12.96-20.96v20.96h-1.66v-22.69h2.46l12.42,20.06v-20.06h1.63Z"
       fill="red"
       id="path187" />
    <path
       d="M402.7,172.58c-1.76-1.7-2.43-3.81-2.43-6.56s.67-4.86,2.43-6.56c1.15-1.09,2.75-1.89,4.8-1.89s3.65,.8,4.8,1.89c1.76,1.7,2.43,3.84,2.43,6.56s-.67,4.86-2.43,6.56c-1.15,1.09-2.75,1.89-4.8,1.89s-3.65-.8-4.8-1.89Zm8.48-1.09c1.5-1.47,1.92-3.36,1.92-5.47s-.42-4-1.92-5.47c-.86-.86-2.08-1.41-3.68-1.41s-2.82,.54-3.68,1.41c-1.5,1.47-1.92,3.39-1.92,5.47s.42,4,1.92,5.47c.86,.86,2.08,1.41,3.68,1.41s2.82-.54,3.68-1.41Z"
       fill="red"
       id="path189" />
    <path
       d="M421.29,151.33v2.37h-2.18v-2.37h2.18Zm-.26,6.69v16h-1.63v-16h1.63Z"
       fill="red"
       id="path191" />
    <path
       d="M425.29,169.15h1.63c.26,2.62,2.34,3.78,4.96,3.78s4.64-1.15,4.64-3.33c0-1.41-.99-2.59-2.94-2.85l-3.1-.42c-2.69-.35-4.51-1.63-4.51-4.06,0-2.85,2.75-4.7,5.76-4.7,3.46,0,5.95,1.98,6.05,4.86h-1.6c-.22-2.3-2.11-3.36-4.45-3.36s-4.13,1.25-4.13,3.04c0,1.31,.7,2.3,3.1,2.62l3.04,.42c3.01,.42,4.42,2.43,4.42,4.35,0,3.26-2.94,4.96-6.27,4.96-3.81,0-6.43-2.02-6.59-5.31Z"
       fill="red"
       id="path193" />
    <path
       d="M443.53,172.23c-1.31-1.54-2.11-3.71-2.11-6.14,0-2.02,.32-4,1.6-5.7,1.38-1.82,3.26-2.82,5.6-2.82,4.42,0,7.07,3.52,7.07,7.78,0,.38,0,.61-.03,1.06h-12.64c.06,3.55,2.14,6.53,5.73,6.53,2.53,0,4.51-1.66,4.9-3.71h1.66c-.48,3.01-3.36,5.25-6.56,5.25-2.3,0-4.16-1.02-5.22-2.24Zm10.5-7.26c-.06-3.04-1.95-5.89-5.41-5.89s-5.5,2.75-5.57,5.89h10.98Z"
       fill="red"
       id="path195" />
  </g>
  <g
     id="g231">
    <path
       d="M564.89,18.91v21.12h11.78v1.57h-13.44V18.91h1.66Z"
       id="path199" />
    <path
       d="M581.02,40.16c-1.76-1.7-2.43-3.81-2.43-6.56s.67-4.86,2.43-6.56c1.15-1.09,2.75-1.89,4.8-1.89s3.65,.8,4.8,1.89c1.76,1.7,2.43,3.84,2.43,6.56s-.67,4.86-2.43,6.56c-1.15,1.09-2.75,1.89-4.8,1.89s-3.65-.8-4.8-1.89Zm8.48-1.09c1.5-1.47,1.92-3.36,1.92-5.47s-.42-4-1.92-5.47c-.86-.86-2.08-1.41-3.68-1.41s-2.82,.54-3.68,1.41c-1.5,1.47-1.92,3.39-1.92,5.47s.42,4,1.92,5.47c.86,.86,2.08,1.41,3.68,1.41s2.82-.54,3.68-1.41Z"
       id="path201" />
    <path
       d="M599.19,40.13c-1.7-1.7-2.3-3.81-2.3-6.53s.58-4.9,2.3-6.56c1.15-1.12,2.78-1.89,4.83-1.89,3.39,0,5.98,2.08,6.37,5.41h-1.7c-.35-2.21-2.18-3.84-4.67-3.84-1.57,0-2.82,.51-3.68,1.38-1.5,1.5-1.82,3.39-1.82,5.5s.35,3.97,1.86,5.47c.86,.86,2.11,1.38,3.68,1.38,2.5,0,4.32-1.63,4.67-3.84h1.66c-.42,3.3-3.01,5.41-6.37,5.41-2.05,0-3.68-.74-4.83-1.89Z"
       id="path203" />
    <path
       d="M615,18.43h1.63v16.9l8.96-9.73h2.05l-6.24,6.72,6.37,9.28h-1.98l-5.54-8.1-3.62,3.97v4.13h-1.63V18.43Z"
       id="path205" />
    <path
       d="M636.76,31.2v1.47h-7.97v-1.47h7.97Z"
       id="path207" />
    <path
       d="M643.7,18.91v2.37h-2.18v-2.37h2.18Zm-.26,6.69v16h-1.63v-16h1.63Z"
       id="path209" />
    <path
       d="M649.37,25.6h1.47l.13,3.07c.83-2.21,3.33-3.52,5.57-3.52,3.65,0,5.66,2.43,5.66,5.98v10.46h-1.6v-10.3c0-2.69-1.38-4.58-4.22-4.58-3.55,0-5.41,2.94-5.41,6.5v8.38h-1.6v-16Z"
       id="path211" />
    <path
       d="M575.42,72.86h-10.75l-2.72,7.14h-1.76l8.8-22.69h2.02l8.9,22.69h-1.73l-2.75-7.14Zm-.61-1.54l-4.83-12.48-4.74,12.48h9.57Z"
       id="path213" />
    <path
       d="M583.13,64h1.47l.13,3.14c.74-2.14,2.69-3.58,5.02-3.58,2.75,0,4.35,1.41,4.99,3.46,.86-1.98,2.59-3.46,5.28-3.46,3.74,0,5.31,2.46,5.31,5.89v10.56h-1.6v-10.37c0-2.82-1.09-4.58-3.87-4.58-3.01,0-4.77,2.66-4.77,5.89v9.06h-1.66v-10.37c0-2.82-1.22-4.58-3.87-4.58-3.07,0-4.83,2.88-4.83,6.3v8.64h-1.6v-16Z"
       id="path215" />
    <path
       d="M611.1,64h1.47l.13,3.04c.9-2.11,3.26-3.49,5.47-3.49,1.89,0,3.3,.61,4.38,1.54,1.86,1.57,2.69,4.03,2.69,6.88s-.8,5.18-2.53,6.78c-1.09,1.02-2.59,1.7-4.51,1.7-2.34,0-4.61-1.31-5.5-3.36v9.28h-1.6v-22.37Zm10.69,13.44c1.28-1.38,1.82-3.39,1.82-5.44,0-2.27-.64-4.42-2.18-5.73-.8-.7-1.89-1.15-3.3-1.15s-2.53,.54-3.36,1.31c-1.47,1.41-2.11,3.36-2.11,5.57,0,2.37,.58,4.22,2.08,5.6,.83,.77,1.95,1.28,3.46,1.28s2.75-.54,3.58-1.44Z"
       id="path217" />
    <path
       d="M630.07,76.8v-19.97h1.6v19.9c0,1.09,.32,1.92,1.66,1.92,.64,0,.93-.03,1.38-.1v1.44c-.35,.1-.77,.19-1.44,.19-2.05,0-3.2-1.06-3.2-3.39Z"
       id="path219" />
    <path
       d="M640.12,57.31v2.37h-2.18v-2.37h2.18Zm-.26,6.69v16h-1.63v-16h1.63Z"
       id="path221" />
    <path
       d="M647.09,65.47h-3.39v-1.47h3.39v-2.72c0-2.43,1.54-4.58,4.61-4.58,.93,0,1.66,.1,2.27,.26v1.44c-.58-.16-1.22-.26-2.14-.26-2.08,0-3.14,1.15-3.14,3.2v2.66h4.96v1.47h-4.96v14.53h-1.6v-14.53Z"
       id="path223" />
    <path
       d="M659.19,57.31v2.37h-2.18v-2.37h2.18Zm-.26,6.69v16h-1.63v-16h1.63Z"
       id="path225" />
    <path
       d="M665.88,78.21c-1.31-1.54-2.11-3.71-2.11-6.14,0-2.02,.32-4,1.6-5.7,1.38-1.82,3.26-2.82,5.6-2.82,4.42,0,7.07,3.52,7.07,7.78,0,.38,0,.61-.03,1.06h-12.64c.06,3.55,2.14,6.53,5.73,6.53,2.53,0,4.51-1.66,4.9-3.71h1.66c-.48,3.01-3.36,5.25-6.56,5.25-2.3,0-4.16-1.02-5.22-2.24Zm10.5-7.26c-.06-3.04-1.95-5.89-5.41-5.89s-5.5,2.75-5.57,5.89h10.98Z"
       id="path227" />
    <path
       d="M682.77,64h1.47l.13,3.3c.7-2.24,2.88-3.46,5.15-3.46,.48,0,1.02,0,1.5,.16v1.54c-.51-.13-1.06-.16-1.57-.16-3.71,0-5.09,3.07-5.09,6.62v8h-1.6v-16Z"
       id="path229" />
  </g>
  <g
     id="g265">
    <path
       d="M808.17,128.24h-10.75l-2.72,7.14h-1.76l8.8-22.69h2.02l8.9,22.69h-1.73l-2.75-7.14Zm-.61-1.54l-4.83-12.48-4.74,12.48h9.57Z"
       id="path233" />
    <path
       d="M815.89,119.37h1.47l.13,3.14c.74-2.14,2.69-3.58,5.02-3.58,2.75,0,4.35,1.41,4.99,3.46,.86-1.98,2.59-3.46,5.28-3.46,3.74,0,5.31,2.46,5.31,5.89v10.56h-1.6v-10.37c0-2.82-1.09-4.58-3.87-4.58-3.01,0-4.77,2.66-4.77,5.89v9.06h-1.66v-10.37c0-2.82-1.22-4.58-3.87-4.58-3.07,0-4.83,2.88-4.83,6.3v8.64h-1.6v-16Z"
       id="path235" />
    <path
       d="M843.86,119.37h1.47l.13,3.04c.9-2.11,3.26-3.49,5.47-3.49,1.89,0,3.3,.61,4.38,1.54,1.86,1.57,2.69,4.03,2.69,6.88s-.8,5.18-2.53,6.78c-1.09,1.02-2.59,1.7-4.51,1.7-2.34,0-4.61-1.31-5.5-3.36v9.28h-1.6v-22.37Zm10.69,13.44c1.28-1.38,1.82-3.39,1.82-5.44,0-2.27-.64-4.42-2.18-5.73-.8-.7-1.89-1.15-3.29-1.15s-2.53,.54-3.36,1.31c-1.47,1.41-2.11,3.36-2.11,5.57,0,2.37,.58,4.22,2.08,5.6,.83,.77,1.95,1.28,3.46,1.28s2.75-.54,3.58-1.44Z"
       id="path237" />
    <path
       d="M862.83,132.17v-19.97h1.6v19.9c0,1.09,.32,1.92,1.66,1.92,.64,0,.93-.03,1.38-.1v1.44c-.35,.1-.77,.19-1.44,.19-2.05,0-3.2-1.06-3.2-3.39Z"
       id="path239" />
    <path
       d="M872.88,112.68v2.37h-2.18v-2.37h2.18Zm-.26,6.69v16h-1.63v-16h1.63Z"
       id="path241" />
    <path
       d="M880.17,131.21v-10.37h-3.78v-1.47h3.78v-4.42l1.6-.38v4.8h5.02v1.47h-5.02v10.14c0,1.76,.54,3.1,2.88,3.1,.86,0,1.54-.1,2.37-.29v1.41c-.8,.26-1.6,.38-2.5,.38-3.14,0-4.35-1.82-4.35-4.38Z"
       id="path243" />
    <path
       d="M890.67,129.71v-10.34h1.6v10.24c0,2.78,1.38,4.64,4.19,4.64,3.71,0,5.25-2.98,5.25-6.56v-8.32h1.6v16h-1.47l-.13-3.01c-.9,2.11-2.94,3.46-5.34,3.46-3.62,0-5.7-2.53-5.7-6.11Z"
       id="path245" />
    <path
       d="M910.86,134.28c-1.86-1.57-2.69-4.13-2.69-6.88s.83-5.09,2.56-6.72c1.12-1.06,2.69-1.76,4.67-1.76,2.59,0,4.58,1.44,5.31,3.23v-9.95h1.63v23.17h-1.5l-.13-3.04c-.9,2.14-3.23,3.49-5.44,3.49-1.89,0-3.33-.61-4.42-1.54Zm7.81-1.34c1.5-1.38,2.08-3.36,2.08-5.57,0-2.37-.54-4.22-2.05-5.6-.83-.77-1.95-1.28-3.46-1.28s-2.72,.54-3.58,1.44c-1.28,1.34-1.86,3.39-1.86,5.44,0,2.27,.64,4.45,2.18,5.73,.83,.7,1.95,1.15,3.33,1.15s2.53-.54,3.36-1.31Z"
       id="path247" />
    <path
       d="M929.33,133.58c-1.31-1.54-2.11-3.71-2.11-6.14,0-2.02,.32-4,1.6-5.7,1.38-1.82,3.26-2.82,5.6-2.82,4.42,0,7.07,3.52,7.07,7.78,0,.38,0,.61-.03,1.06h-12.64c.06,3.55,2.14,6.53,5.73,6.53,2.53,0,4.51-1.66,4.9-3.71h1.66c-.48,3.01-3.36,5.25-6.56,5.25-2.3,0-4.16-1.02-5.21-2.24Zm10.5-7.26c-.06-3.04-1.95-5.89-5.41-5.89s-5.5,2.75-5.57,5.89h10.98Z"
       id="path249" />
    <path
       d="M962.41,112.68c4.96,0,7.65,2.56,7.65,6.46,0,3.04-2.11,5.44-5.31,6.05l5.12,10.18h-1.82l-4.9-9.79h-7.36v9.79h-1.66v-22.69h8.29Zm5.92,6.46c0-3.2-2.18-4.9-5.92-4.9h-6.62v9.79h6.62c3.74,0,5.92-1.7,5.92-4.9Z"
       id="path251" />
    <path
       d="M803.95,151.08c4.19,0,7.46,2.02,7.46,6.46s-3.26,6.46-7.46,6.46h-6.3v9.76h-1.66v-22.69h7.97Zm5.73,6.46c0-3.52-2.53-4.86-5.82-4.86h-6.21v9.73h6.21c3.3,0,5.82-1.34,5.82-4.86Z"
       id="path253" />
    <path
       d="M817.2,150.6v10.11c.9-2.05,3.26-3.39,5.5-3.39,3.65,0,5.73,2.3,5.73,5.89v10.56h-1.6v-10.46c0-2.82-1.34-4.48-4.22-4.48-3.9,0-5.41,3.49-5.41,6.94v8h-1.6v-23.17h1.6Z"
       id="path255" />
    <path
       d="M832.88,169.32c0-2.85,2.18-4.61,5.38-4.83l5.89-.42v-1.41c0-2.69-1.95-3.84-4.42-3.84s-4.38,1.15-4.54,3.55h-1.6c.22-3.3,2.88-5.06,6.08-5.06,3.65,0,6.08,1.79,6.08,5.47v7.9c0,1.09,.16,1.73,1.25,1.73,.13,0,.32,0,.45-.03v1.41c-.22,.06-.51,.1-.77,.1-1.98,0-2.53-1.5-2.53-3.2-.86,2.27-3.3,3.52-5.76,3.52-3.1,0-5.5-1.89-5.5-4.9Zm11.26-2.94v-.83l-5.73,.35c-2.46,.16-3.9,1.5-3.9,3.39,0,2.24,1.73,3.46,4,3.46,4.03,0,5.63-3.26,5.63-6.37Z"
       id="path257" />
    <path
       d="M850.32,168.91h1.63c.26,2.62,2.34,3.78,4.96,3.78s4.64-1.15,4.64-3.33c0-1.41-.99-2.59-2.94-2.85l-3.1-.42c-2.69-.35-4.51-1.63-4.51-4.06,0-2.85,2.75-4.7,5.76-4.7,3.46,0,5.95,1.98,6.05,4.86h-1.6c-.22-2.3-2.11-3.36-4.45-3.36s-4.13,1.25-4.13,3.04c0,1.31,.7,2.3,3.1,2.62l3.04,.42c3.01,.42,4.42,2.43,4.42,4.35,0,3.26-2.94,4.96-6.27,4.96-3.81,0-6.43-2.02-6.59-5.31Z"
       id="path259" />
    <path
       d="M868.78,171.98c-1.31-1.54-2.11-3.71-2.11-6.14,0-2.02,.32-4,1.6-5.7,1.38-1.82,3.26-2.82,5.6-2.82,4.42,0,7.07,3.52,7.07,7.78,0,.38,0,.61-.03,1.06h-12.64c.06,3.55,2.14,6.53,5.73,6.53,2.53,0,4.51-1.66,4.9-3.71h1.66c-.48,3.01-3.36,5.25-6.56,5.25-2.3,0-4.16-1.02-5.21-2.24Zm10.5-7.26c-.06-3.04-1.95-5.89-5.41-5.89s-5.5,2.75-5.57,5.89h10.98Z"
       id="path261" />
    <path
       d="M895.25,171.91c-2.59-2.46-3.01-6.21-3.01-9.5s.32-7.07,3.01-9.47c1.47-1.31,3.46-2.3,5.98-2.3s4.51,.96,5.95,2.3c2.66,2.46,3.04,6.21,3.04,9.47s-.38,7.04-3.04,9.5c-1.44,1.34-3.42,2.3-5.95,2.3s-4.54-.93-5.98-2.3Zm10.72-1.09c2.27-2.18,2.5-5.7,2.5-8.42s-.22-6.21-2.5-8.38c-1.22-1.15-2.91-1.76-4.74-1.76s-3.52,.64-4.74,1.76c-2.34,2.14-2.53,5.7-2.53,8.38s.22,6.21,2.53,8.42c1.22,1.15,2.91,1.76,4.74,1.76s3.52-.61,4.74-1.76Zm-.29-9.44v1.6h-8.93v-1.6h8.93Z"
       id="path263" />
  </g>
  <g
     id="g307">
    <path
       d="M105.15,332.12c4.96,0,7.65,2.56,7.65,6.46,0,3.04-2.11,5.44-5.31,6.05l5.12,10.18h-1.82l-4.9-9.79h-7.36v9.79h-1.66v-22.69h8.29Zm5.92,6.46c0-3.2-2.18-4.9-5.92-4.9h-6.62v9.79h6.62c3.74,0,5.92-1.7,5.92-4.9Z"
       id="path267" />
    <path
       d="M118.27,353.01c-1.31-1.54-2.11-3.71-2.11-6.14,0-2.02,.32-4,1.6-5.7,1.38-1.82,3.26-2.82,5.6-2.82,4.42,0,7.07,3.52,7.07,7.78,0,.38,0,.61-.03,1.06h-12.64c.06,3.55,2.14,6.53,5.73,6.53,2.53,0,4.51-1.66,4.9-3.71h1.66c-.48,3.01-3.36,5.25-6.56,5.25-2.3,0-4.16-1.02-5.22-2.24Zm10.5-7.26c-.06-3.04-1.95-5.89-5.41-5.89s-5.5,2.75-5.57,5.89h10.98Z"
       id="path269" />
    <path
       d="M136.22,340.28h-3.39v-1.47h3.39v-2.72c0-2.43,1.54-4.58,4.61-4.58,.93,0,1.66,.1,2.27,.26v1.44c-.58-.16-1.22-.26-2.14-.26-2.08,0-3.14,1.15-3.14,3.2v2.66h4.96v1.47h-4.96v14.53h-1.6v-14.53Z"
       id="path271" />
    <path
       d="M146.82,353.01c-1.31-1.54-2.11-3.71-2.11-6.14,0-2.02,.32-4,1.6-5.7,1.38-1.82,3.26-2.82,5.6-2.82,4.42,0,7.07,3.52,7.07,7.78,0,.38,0,.61-.03,1.06h-12.64c.06,3.55,2.14,6.53,5.73,6.53,2.53,0,4.51-1.66,4.9-3.71h1.66c-.48,3.01-3.36,5.25-6.56,5.25-2.3,0-4.16-1.02-5.22-2.24Zm10.5-7.26c-.06-3.04-1.95-5.89-5.41-5.89s-5.5,2.75-5.57,5.89h10.98Z"
       id="path273" />
    <path
       d="M163.71,338.8h1.47l.13,3.3c.7-2.24,2.88-3.46,5.15-3.46,.48,0,1.02,0,1.5,.16v1.54c-.51-.13-1.06-.16-1.57-.16-3.71,0-5.09,3.07-5.09,6.62v8h-1.6v-16Z"
       id="path275" />
    <path
       d="M176.13,353.01c-1.31-1.54-2.11-3.71-2.11-6.14,0-2.02,.32-4,1.6-5.7,1.38-1.82,3.26-2.82,5.6-2.82,4.42,0,7.07,3.52,7.07,7.78,0,.38,0,.61-.03,1.06h-12.64c.06,3.55,2.14,6.53,5.73,6.53,2.53,0,4.51-1.66,4.9-3.71h1.66c-.48,3.01-3.36,5.25-6.56,5.25-2.3,0-4.16-1.02-5.22-2.24Zm10.5-7.26c-.06-3.04-1.95-5.89-5.41-5.89s-5.5,2.75-5.57,5.89h10.98Z"
       id="path277" />
    <path
       d="M193.02,338.8h1.47l.13,3.07c.83-2.21,3.33-3.52,5.57-3.52,3.65,0,5.66,2.43,5.66,5.98v10.46h-1.6v-10.3c0-2.69-1.38-4.58-4.22-4.58-3.55,0-5.41,2.94-5.41,6.5v8.38h-1.6v-16Z"
       id="path279" />
    <path
       d="M212.86,353.33c-1.7-1.7-2.3-3.81-2.3-6.53s.58-4.9,2.3-6.56c1.15-1.12,2.78-1.89,4.83-1.89,3.39,0,5.98,2.08,6.37,5.41h-1.7c-.35-2.21-2.18-3.84-4.67-3.84-1.57,0-2.82,.51-3.68,1.38-1.5,1.5-1.82,3.39-1.82,5.5s.35,3.97,1.86,5.47c.86,.86,2.11,1.38,3.68,1.38,2.5,0,4.32-1.63,4.67-3.84h1.66c-.42,3.3-3.01,5.41-6.37,5.41-2.05,0-3.68-.74-4.83-1.89Z"
       id="path281" />
    <path
       d="M229.7,353.01c-1.31-1.54-2.11-3.71-2.11-6.14,0-2.02,.32-4,1.6-5.7,1.38-1.82,3.26-2.82,5.6-2.82,4.42,0,7.07,3.52,7.07,7.78,0,.38,0,.61-.03,1.06h-12.64c.06,3.55,2.14,6.53,5.73,6.53,2.53,0,4.51-1.66,4.9-3.71h1.66c-.48,3.01-3.36,5.25-6.56,5.25-2.3,0-4.16-1.02-5.22-2.24Zm10.5-7.26c-.06-3.04-1.95-5.89-5.41-5.89s-5.5,2.75-5.57,5.89h10.98Z"
       id="path283" />
    <path
       d="M252.54,348.27h1.79c.38,3.26,2.88,5.38,6.59,5.38s6.56-1.86,6.56-5.06c0-2.14-1.7-3.94-4.42-4.32l-3.84-.54c-3.46-.48-5.89-2.27-5.89-5.7,0-3.68,3.71-6.37,7.74-6.37,4.38,0,7.52,2.75,7.81,6.46h-1.7c-.45-3.2-3.01-4.86-6.18-4.86-3.33,0-5.95,1.95-5.95,4.7s1.89,3.65,4.32,4l3.9,.54c3.49,.48,5.92,2.88,5.92,6.02,0,4.03-3.55,6.72-8.29,6.72s-8.19-2.82-8.38-6.98Z"
       id="path285" />
    <path
       d="M275.74,332.12v2.37h-2.18v-2.37h2.18Zm-.26,6.69v16h-1.63v-16h1.63Z"
       id="path287" />
    <path
       d="M280.03,357.07c0-1.66,1.09-3.1,2.82-3.58-1.22-.26-2.11-1.31-2.11-2.5,0-1.34,.93-2.34,2.24-2.82-1.15-.96-1.86-2.4-1.86-4.19,0-3.46,2.75-5.63,5.98-5.63,1.44,0,2.75,.42,3.84,1.12,.38-1.41,1.7-2.21,3.14-2.21,.19,0,.45,.03,.61,.06v1.34c-.16-.03-.42-.03-.61-.03-1.15,0-1.98,.64-2.21,1.73,.8,.93,1.28,2.14,1.28,3.62,0,3.46-2.72,5.54-6.05,5.54-1.22,0-2.34-.26-3.26-.77-.86,.35-1.66,.96-1.66,1.92,0,1.47,1.6,1.66,2.88,1.66h3.3c2.46,0,4,.42,5.09,1.44,.77,.74,1.22,1.6,1.22,2.94,0,3.58-3.74,4.9-7.55,4.9s-7.07-1.38-7.07-4.54Zm13.02-.29c0-2.3-2.08-2.94-4.58-2.94h-4.29c-1.44,.35-2.66,1.22-2.66,3.07,0,2.5,2.78,3.26,5.6,3.26,3.04,0,5.92-.77,5.92-3.39Zm-1.5-12.8c0-2.66-1.95-4.22-4.45-4.22s-4.42,1.57-4.42,4.22,1.92,4.13,4.42,4.13,4.45-1.5,4.45-4.13Z"
       id="path289" />
    <path
       d="M298.69,338.8h1.47l.13,3.07c.83-2.21,3.33-3.52,5.57-3.52,3.65,0,5.66,2.43,5.66,5.98v10.46h-1.6v-10.3c0-2.69-1.38-4.58-4.22-4.58-3.55,0-5.41,2.94-5.41,6.5v8.38h-1.6v-16Z"
       id="path291" />
    <path
       d="M315.97,350.35c0-2.85,2.18-4.61,5.38-4.83l5.89-.42v-1.41c0-2.69-1.95-3.84-4.42-3.84s-4.38,1.15-4.54,3.55h-1.6c.22-3.3,2.88-5.06,6.08-5.06,3.65,0,6.08,1.79,6.08,5.47v7.9c0,1.09,.16,1.73,1.25,1.73,.13,0,.32,0,.45-.03v1.41c-.22,.06-.51,.1-.77,.1-1.98,0-2.53-1.5-2.53-3.2-.86,2.27-3.3,3.52-5.76,3.52-3.1,0-5.5-1.89-5.5-4.9Zm11.26-2.94v-.83l-5.73,.35c-2.46,.16-3.9,1.5-3.9,3.39,0,2.24,1.73,3.46,4,3.46,4.03,0,5.63-3.26,5.63-6.37Z"
       id="path293" />
    <path
       d="M334.78,351.6v-19.97h1.6v19.9c0,1.09,.32,1.92,1.66,1.92,.64,0,.93-.03,1.38-.1v1.44c-.35,.1-.77,.19-1.44,.19-2.05,0-3.2-1.06-3.2-3.39Z"
       id="path295" />
    <path
       d="M348.99,332.12l7.2,20.54,7.1-20.54h1.76l-8.06,22.69h-1.7l-8.06-22.69h1.76Z"
       id="path297" />
    <path
       d="M367.27,356.13h.86l.07,1.92c.41-1.31,1.68-2.02,3-2.02,.28,0,.6,0,.88,.09v.9c-.3-.07-.62-.09-.91-.09-2.16,0-2.97,1.79-2.97,3.86v4.67h-.93v-9.33Z"
       id="path299" />
    <path
       d="M374.99,344.47c0-4.99,1.82-10.56,5.28-14.43l.99,.77c-3.14,4.03-4.77,8.42-4.77,13.66s1.63,9.63,4.77,13.66l-.99,.77c-3.46-3.87-5.28-9.44-5.28-14.43Z"
       id="path301" />
    <path
       d="M386.5,350.64v-10.37h-3.78v-1.47h3.78v-4.42l1.6-.38v4.8h5.02v1.47h-5.02v10.14c0,1.76,.54,3.1,2.88,3.1,.86,0,1.54-.1,2.37-.29v1.41c-.8,.26-1.6,.38-2.5,.38-3.14,0-4.35-1.82-4.35-4.38Z"
       id="path303" />
    <path
       d="M394.86,358.13c3.14-4.03,4.77-8.42,4.77-13.66s-1.63-9.63-4.77-13.66l.99-.77c3.46,3.87,5.28,9.44,5.28,14.43s-1.82,10.56-5.28,14.43l-.99-.77Z"
       id="path305" />
  </g>
</svg>
