<?xml version="1.0" encoding="UTF-8"?>
<svg id="Ebene_1" data-name="Ebene 1" xmlns="http://www.w3.org/2000/svg" viewBox="0 0 963.44 805.79">
  <g>
    <rect x="257.15" y="32.47" width="98.62" height="52.98" fill="#fff" stroke="#000" stroke-linecap="round" stroke-linejoin="round" stroke-width="2"/>
    <g>
      <path d="m286.37,46.52c2.56,0,4.61.86,6.02,2.21,2.56,2.43,2.94,5.95,2.94,9.15s-.38,6.69-2.94,9.12c-1.41,1.34-3.46,2.21-6.02,2.21h-7.49v-22.69h7.49Zm4.8,19.42c2.24-2.08,2.43-5.5,2.43-8.06s-.19-6.02-2.43-8.1c-1.15-1.09-2.91-1.63-4.8-1.63h-5.82v19.42h5.82c1.89,0,3.65-.54,4.8-1.63Z"/>
      <path d="m300.39,61.47v-14.94h1.66v14.88c0,3.84,1.92,6.66,6.37,6.66s6.4-2.82,6.4-6.66v-14.88h1.66v14.94c0,4.83-2.69,8.19-8.06,8.19s-8.03-3.36-8.03-8.19Z"/>
      <path d="m319.94,48.12v-1.6h17.05v1.6h-7.71v21.09h-1.66v-21.09h-7.68Z"/>
    </g>
  </g>
  <g>
    <line x1="804" y1="129.15" x2="952.68" y2="129.15" fill="none" stroke="#000" stroke-linecap="round" stroke-linejoin="round" stroke-width="2"/>
    <polygon points="950.49 136.59 963.44 129.11 950.49 121.63 950.49 136.59"/>
  </g>
  <g>
    <line x1="64.34" y1="129.15" x2="574.74" y2="129.15" fill="none" stroke="#000" stroke-linecap="round" stroke-linejoin="round" stroke-width="2"/>
    <polygon points="572.55 136.59 585.51 129.11 572.55 121.63 572.55 136.59"/>
  </g>
  <g>
    <polyline points="246.38 58.96 137.52 58.96 137.52 128.8" fill="none" stroke="#000" stroke-linecap="round" stroke-linejoin="round" stroke-width="2"/>
    <polygon points="244.2 51.53 257.15 59 244.2 66.48 244.2 51.53"/>
  </g>
  <g>
    <line x1="574.74" y1="63.09" x2="355.77" y2="63.09" fill="none" stroke="#000" stroke-linecap="round" stroke-linejoin="round" stroke-width="2"/>
    <polygon points="572.55 55.65 585.51 63.13 572.55 70.61 572.55 55.65"/>
  </g>
  <g>
    <line x1="653.06" y1="451.21" x2="511.67" y2="451.21" fill="none" stroke="#000" stroke-linecap="round" stroke-linejoin="round" stroke-width="2"/>
    <polygon points="650.87 443.77 663.82 451.25 650.87 458.73 650.87 443.77"/>
  </g>
  <g>
    <line x1="438" y1="451.21" x2="1.04" y2="451.21" fill="none" stroke="#000" stroke-linecap="round" stroke-linejoin="round" stroke-width="2"/>
    <polygon points="435.81 443.77 448.77 451.25 435.81 458.73 435.81 443.77"/>
  </g>
  <g>
    <line x1="653.06" y1="732" x2="511.67" y2="732" fill="none" stroke="#000" stroke-linecap="round" stroke-linejoin="round" stroke-width="2"/>
    <polygon points="650.87 724.56 663.82 732.04 650.87 739.52 650.87 724.56"/>
  </g>
  <g>
    <line x1="480.22" y1="689.78" x2="480.22" y2="493.43" fill="none" stroke="#000" stroke-linecap="round" stroke-linejoin="round" stroke-width="2"/>
    <polygon points="487.65 687.59 480.18 700.54 472.7 687.59 487.65 687.59"/>
    <polygon points="487.65 495.62 480.18 482.66 472.7 495.62 487.65 495.62"/>
  </g>
  <g>
    <line x1="828.69" y1="549.05" x2="828.69" y2="451.83" fill="none" stroke="#000" stroke-linecap="round" stroke-linejoin="round" stroke-width="2"/>
    <polygon points="836.13 546.86 828.65 559.81 821.17 546.86 836.13 546.86"/>
  </g>
  <g>
    <line x1="828.27" y1="730.48" x2="828.27" y2="632.27" fill="none" stroke="#000" stroke-linecap="round" stroke-linejoin="round" stroke-width="2"/>
    <polygon points="835.7 634.46 828.23 621.5 820.75 634.46 835.7 634.46"/>
  </g>
  <g>
    <polyline points="438 732 104.48 732 104.48 451.06" fill="none" stroke="#000" stroke-linecap="round" stroke-linejoin="round" stroke-width="2"/>
    <polygon points="435.81 724.56 448.77 732.04 435.81 739.52 435.81 724.56"/>
  </g>
  <g>
    <line x1="952.68" y1="63.09" x2="804" y2="63.09" fill="none" stroke="#000" stroke-linecap="round" stroke-linejoin="round" stroke-width="2"/>
    <polygon points="950.49 55.65 963.44 63.13 950.49 70.61 950.49 55.65"/>
  </g>
  <g>
    <path d="m5.98,411.22v22.69h-1.7v-22.69h1.7Z"/>
    <path d="m12.31,417.9h1.47l.13,3.07c.83-2.21,3.33-3.52,5.57-3.52,3.65,0,5.66,2.43,5.66,5.98v10.46h-1.6v-10.3c0-2.69-1.38-4.58-4.22-4.58-3.55,0-5.41,2.94-5.41,6.5v8.38h-1.6v-16Z"/>
    <path d="m30.9,417.9h1.47l.13,3.04c.9-2.11,3.26-3.49,5.47-3.49,1.89,0,3.3.61,4.38,1.54,1.86,1.57,2.69,4.03,2.69,6.88s-.8,5.18-2.53,6.78c-1.09,1.02-2.59,1.7-4.51,1.7-2.34,0-4.61-1.31-5.5-3.36v9.28h-1.6v-22.37Zm10.69,13.44c1.28-1.38,1.82-3.39,1.82-5.44,0-2.27-.64-4.42-2.18-5.73-.8-.7-1.89-1.15-3.3-1.15s-2.53.54-3.36,1.31c-1.47,1.41-2.11,3.36-2.11,5.57,0,2.37.58,4.22,2.08,5.6.83.77,1.95,1.28,3.46,1.28s2.75-.54,3.58-1.44Z"/>
    <path d="m49.75,428.24v-10.34h1.6v10.24c0,2.78,1.38,4.64,4.19,4.64,3.71,0,5.25-2.98,5.25-6.56v-8.32h1.6v16h-1.47l-.13-3.01c-.9,2.11-2.94,3.46-5.34,3.46-3.62,0-5.7-2.53-5.7-6.11Z"/>
    <path d="m69.97,429.74v-10.37h-3.78v-1.47h3.78v-4.42l1.6-.38v4.8h5.02v1.47h-5.02v10.14c0,1.76.54,3.1,2.88,3.1.86,0,1.54-.1,2.37-.29v1.41c-.8.26-1.6.38-2.5.38-3.14,0-4.35-1.82-4.35-4.38Z"/>
    <path d="m86.61,427.38h1.79c.38,3.26,2.88,5.38,6.59,5.38s6.56-1.86,6.56-5.06c0-2.14-1.7-3.94-4.42-4.32l-3.84-.54c-3.46-.48-5.89-2.27-5.89-5.7,0-3.68,3.71-6.37,7.74-6.37,4.38,0,7.52,2.75,7.81,6.46h-1.7c-.45-3.2-3.01-4.86-6.18-4.86-3.33,0-5.95,1.95-5.95,4.7s1.89,3.65,4.32,4l3.9.54c3.49.48,5.92,2.88,5.92,6.02,0,4.03-3.55,6.72-8.29,6.72s-8.19-2.82-8.38-6.98Z"/>
    <path d="m109.81,411.22v2.37h-2.18v-2.37h2.18Zm-.26,6.69v16h-1.63v-16h1.63Z"/>
    <path d="m114.1,436.17c0-1.66,1.09-3.1,2.82-3.58-1.22-.26-2.11-1.31-2.11-2.5,0-1.34.93-2.34,2.24-2.82-1.15-.96-1.86-2.4-1.86-4.19,0-3.46,2.75-5.63,5.98-5.63,1.44,0,2.75.42,3.84,1.12.38-1.41,1.7-2.21,3.14-2.21.19,0,.45.03.61.06v1.34c-.16-.03-.42-.03-.61-.03-1.15,0-1.98.64-2.21,1.73.8.93,1.28,2.14,1.28,3.62,0,3.46-2.72,5.54-6.05,5.54-1.22,0-2.34-.26-3.26-.77-.86.35-1.66.96-1.66,1.92,0,1.47,1.6,1.66,2.88,1.66h3.3c2.46,0,4,.42,5.09,1.44.77.74,1.22,1.6,1.22,2.94,0,3.58-3.74,4.9-7.55,4.9s-7.07-1.38-7.07-4.54Zm13.02-.29c0-2.3-2.08-2.94-4.58-2.94h-4.29c-1.44.35-2.66,1.22-2.66,3.07,0,2.5,2.78,3.26,5.6,3.26,3.04,0,5.92-.77,5.92-3.39Zm-1.5-12.8c0-2.66-1.95-4.22-4.45-4.22s-4.42,1.57-4.42,4.22,1.92,4.13,4.42,4.13,4.45-1.5,4.45-4.13Z"/>
    <path d="m132.76,417.9h1.47l.13,3.07c.83-2.21,3.33-3.52,5.57-3.52,3.65,0,5.66,2.43,5.66,5.98v10.46h-1.6v-10.3c0-2.69-1.38-4.58-4.22-4.58-3.55,0-5.41,2.94-5.41,6.5v8.38h-1.6v-16Z"/>
    <path d="m150.04,429.45c0-2.85,2.18-4.61,5.38-4.83l5.89-.42v-1.41c0-2.69-1.95-3.84-4.42-3.84s-4.38,1.15-4.54,3.55h-1.6c.22-3.3,2.88-5.06,6.08-5.06,3.65,0,6.08,1.79,6.08,5.47v7.9c0,1.09.16,1.73,1.25,1.73.13,0,.32,0,.45-.03v1.41c-.22.06-.51.1-.77.1-1.98,0-2.53-1.5-2.53-3.2-.86,2.27-3.3,3.52-5.76,3.52-3.1,0-5.5-1.89-5.5-4.9Zm11.26-2.94v-.83l-5.73.35c-2.46.16-3.9,1.5-3.9,3.39,0,2.24,1.73,3.46,4,3.46,4.03,0,5.63-3.26,5.63-6.37Z"/>
    <path d="m168.85,430.7v-19.97h1.6v19.9c0,1.09.32,1.92,1.66,1.92.64,0,.93-.03,1.38-.1v1.44c-.35.1-.77.19-1.44.19-2.05,0-3.2-1.06-3.2-3.39Z"/>
    <path d="m183.8,411.22l7.2,20.54,7.1-20.54h1.76l-8.06,22.69h-1.7l-8.06-22.69h1.76Z"/>
    <path d="m201.24,441.72h.95c.15,1.53,1.36,2.2,2.89,2.2s2.71-.67,2.71-1.94c0-.82-.58-1.51-1.72-1.66l-1.81-.24c-1.57-.21-2.63-.95-2.63-2.37,0-1.66,1.6-2.74,3.36-2.74,2.02,0,3.47,1.16,3.53,2.84h-.93c-.13-1.34-1.23-1.96-2.59-1.96s-2.41.73-2.41,1.77c0,.77.41,1.34,1.81,1.53l1.77.24c1.75.24,2.58,1.42,2.58,2.54,0,1.9-1.72,2.89-3.66,2.89-2.22,0-3.75-1.18-3.84-3.1Z"/>
    <path d="m212.07,423.57c0-4.99,1.82-10.56,5.28-14.43l.99.77c-3.14,4.03-4.77,8.42-4.77,13.66s1.63,9.63,4.77,13.66l-.99.77c-3.46-3.87-5.28-9.44-5.28-14.43Z"/>
    <path d="m223.59,429.74v-10.37h-3.78v-1.47h3.78v-4.42l1.6-.38v4.8h5.02v1.47h-5.02v10.14c0,1.76.54,3.1,2.88,3.1.86,0,1.54-.1,2.37-.29v1.41c-.8.26-1.6.38-2.5.38-3.14,0-4.35-1.82-4.35-4.38Z"/>
    <path d="m231.94,437.23c3.14-4.03,4.77-8.42,4.77-13.66s-1.63-9.63-4.77-13.66l.99-.77c3.46,3.87,5.28,9.44,5.28,14.43s-1.82,10.56-5.28,14.43l-.99-.77Z"/>
  </g>
  <g>
    <path d="m444.96,23.25l7.2,20.54,7.1-20.54h1.76l-8.06,22.69h-1.7l-8.06-22.69h1.76Z"/>
    <path d="m462.4,53.75h.95c.15,1.53,1.36,2.2,2.89,2.2s2.71-.67,2.71-1.94c0-.82-.58-1.51-1.72-1.66l-1.81-.24c-1.57-.21-2.63-.95-2.63-2.37,0-1.66,1.6-2.74,3.36-2.74,2.02,0,3.47,1.16,3.53,2.84h-.93c-.13-1.34-1.23-1.96-2.59-1.96s-2.41.73-2.41,1.77c0,.77.41,1.34,1.81,1.53l1.77.24c1.75.24,2.58,1.42,2.58,2.54,0,1.9-1.72,2.89-3.66,2.89-2.22,0-3.75-1.18-3.84-3.1Z"/>
    <path d="m473.23,35.6c0-4.99,1.82-10.56,5.28-14.43l.99.77c-3.14,4.03-4.77,8.42-4.77,13.66s1.63,9.63,4.77,13.66l-.99.77c-3.46-3.87-5.28-9.44-5.28-14.43Z"/>
    <path d="m484.75,41.77v-10.37h-3.78v-1.47h3.78v-4.42l1.6-.38v4.8h5.02v1.47h-5.02v10.14c0,1.76.54,3.1,2.88,3.1.86,0,1.54-.1,2.37-.29v1.41c-.8.26-1.6.38-2.5.38-3.14,0-4.35-1.82-4.35-4.38Z"/>
    <path d="m493.1,49.26c3.14-4.03,4.77-8.42,4.77-13.66s-1.63-9.63-4.77-13.66l.99-.77c3.46,3.87,5.28,9.44,5.28,14.43s-1.82,10.56-5.28,14.43l-.99-.77Z"/>
  </g>
  <g>
    <path d="m444.96,140.82l7.2,20.54,7.1-20.54h1.76l-8.06,22.69h-1.7l-8.06-22.69h1.76Z"/>
    <path d="m463.24,164.83h.86l.07,1.92c.41-1.31,1.68-2.02,3-2.02.28,0,.6,0,.88.09v.9c-.3-.07-.62-.09-.91-.09-2.16,0-2.97,1.79-2.97,3.86v4.67h-.93v-9.33Z"/>
    <path d="m470.96,153.17c0-4.99,1.82-10.56,5.28-14.43l.99.77c-3.14,4.03-4.77,8.42-4.77,13.66s1.63,9.63,4.77,13.66l-.99.77c-3.46-3.87-5.28-9.44-5.28-14.43Z"/>
    <path d="m482.48,159.35v-10.37h-3.78v-1.47h3.78v-4.42l1.6-.38v4.8h5.02v1.47h-5.02v10.14c0,1.76.54,3.1,2.88,3.1.86,0,1.54-.1,2.37-.29v1.41c-.8.26-1.6.38-2.5.38-3.14,0-4.35-1.82-4.35-4.38Z"/>
    <path d="m490.83,166.84c3.14-4.03,4.77-8.42,4.77-13.66s-1.63-9.63-4.77-13.66l.99-.77c3.46,3.87,5.28,9.44,5.28,14.43s-1.82,10.56-5.28,14.43l-.99-.77Z"/>
  </g>
  <path d="m881.08,23.25c4.96,0,7.65,2.56,7.65,6.46,0,3.04-2.11,5.44-5.31,6.05l5.12,10.18h-1.82l-4.9-9.79h-7.36v9.79h-1.66v-22.69h8.29Zm5.92,6.46c0-3.2-2.18-4.9-5.92-4.9h-6.62v9.79h6.62c3.74,0,5.92-1.7,5.92-4.9Z"/>
  <path d="m819.87,411.37h1.89l6.53,9.92,6.53-9.92h1.86l-7.46,11.2,7.46,11.49h-1.95l-6.5-10.14-6.53,10.14h-1.86l7.46-11.49-7.42-11.2Z"/>
  <path d="m819.61,743.67h1.79l6.91,11.74,6.91-11.74h1.7l-7.84,13.38v9.31h-1.63v-9.31l-7.84-13.38Z"/>
  <path d="m878.19,161.64c-2.59-2.46-3.01-6.21-3.01-9.5s.32-7.07,3.01-9.47c1.47-1.31,3.46-2.3,5.98-2.3s4.51.96,5.95,2.3c2.66,2.46,3.04,6.21,3.04,9.47s-.38,7.04-3.04,9.5c-1.44,1.34-3.42,2.3-5.95,2.3s-4.54-.93-5.98-2.3Zm10.72-1.09c2.27-2.18,2.5-5.7,2.5-8.42s-.22-6.21-2.5-8.38c-1.22-1.15-2.91-1.76-4.74-1.76s-3.52.64-4.74,1.76c-2.34,2.14-2.53,5.7-2.53,8.38s.22,6.21,2.53,8.42c1.22,1.15,2.91,1.76,4.74,1.76s3.52-.61,4.74-1.76Zm-.29-9.44v1.6h-8.93v-1.6h8.93Z"/>
  <path d="m920.78,530.69c4.96,0,7.65,2.56,7.65,6.46,0,3.04-2.11,5.44-5.31,6.05l5.12,10.18h-1.82l-4.9-9.79h-7.36v9.79h-1.66v-22.69h8.29Zm5.92,6.46c0-3.2-2.18-4.9-5.92-4.9h-6.62v9.79h6.62c3.74,0,5.92-1.7,5.92-4.9Z"/>
  <path d="m914.16,644.21c-2.59-2.46-3.01-6.21-3.01-9.5s.32-7.07,3.01-9.47c1.47-1.31,3.46-2.3,5.98-2.3s4.51.96,5.95,2.3c2.66,2.46,3.04,6.21,3.04,9.47s-.38,7.04-3.04,9.5c-1.44,1.34-3.42,2.3-5.95,2.3s-4.54-.93-5.98-2.3Zm10.72-1.09c2.27-2.18,2.5-5.7,2.5-8.42s-.22-6.21-2.5-8.38c-1.22-1.15-2.91-1.76-4.74-1.76s-3.52.64-4.74,1.76c-2.34,2.14-2.53,5.7-2.53,8.38s.22,6.21,2.53,8.42c1.22,1.15,2.91,1.76,4.74,1.76s3.52-.61,4.74-1.76Zm-.29-9.44v1.6h-8.93v-1.6h8.93Z"/>
  <g>
    <path d="m489.63,643.12v-1.44h7.84v-8.22h1.5v8.22h7.84v1.44h-7.84v8.8h-1.5v-8.8h-7.84Z"/>
    <path d="m510.27,646.55h1.66c.16,2.56,2.08,4.29,5.02,4.29,5.34,0,5.92-6.02,5.92-11.1-.67,2.59-3.2,4.22-5.82,4.22-4.54,0-7.26-2.91-7.26-7.29,0-4.06,2.69-7.36,7.23-7.36,2.59,0,4.54,1.28,5.6,2.69,1.7,2.27,1.89,5.66,1.89,8.83s-.42,6.82-2.37,9.25c-1.12,1.41-2.78,2.3-5.18,2.3-3.81,0-6.46-2.34-6.69-5.82Zm12.19-9.82c0-3.07-1.92-5.89-5.47-5.89-3.84,0-5.57,2.75-5.57,5.82s1.79,5.82,5.6,5.82c3.07,0,5.44-2.59,5.44-5.76Z"/>
    <path d="m531.48,650.55c-2.4-2.21-2.75-6.21-2.75-9.73s.35-7.49,2.75-9.7c1.09-.99,2.59-1.82,4.74-1.82s3.68.8,4.74,1.82c2.37,2.27,2.75,6.21,2.75,9.7s-.35,7.52-2.75,9.73c-1.06.99-2.59,1.82-4.74,1.82s-3.65-.83-4.74-1.82Zm8.42-1.02c2.08-1.95,2.21-5.79,2.21-8.7s-.1-6.72-2.21-8.67c-.86-.8-2.02-1.31-3.68-1.31s-2.82.54-3.65,1.31c-2.11,1.95-2.21,5.79-2.21,8.67s.1,6.75,2.21,8.7c.83.77,2.02,1.31,3.65,1.31s2.85-.51,3.68-1.31Z"/>
    <path d="m547.58,634.61c0-2.91,2.4-5.31,5.31-5.31s5.28,2.4,5.28,5.31-2.37,5.31-5.28,5.31-5.31-2.4-5.31-5.31Zm9.12,0c0-2.18-1.63-3.9-3.81-3.9s-3.84,1.73-3.84,3.9,1.66,3.9,3.84,3.9,3.81-1.73,3.81-3.9Z"/>
  </g>
  <path d="m6.42,376.7l-.23,2.89h-2.85v-27.51h3.23v10.79c1.06-2.05,3.57-3,5.74-3,2.28,0,4.14.8,5.43,1.98,2.01,1.86,2.96,4.86,2.96,8.17s-.95,6.12-2.81,7.98c-1.29,1.29-3.19,2.13-5.59,2.13-2.24,0-4.98-1.06-5.89-3.42Zm9.31-1.03c1.25-1.44,1.67-3.65,1.67-5.7,0-2.2-.42-4.48-1.86-5.93-.87-.87-2.09-1.44-3.76-1.44-1.44,0-2.43.57-3.23,1.25-1.63,1.41-2.13,3.72-2.13,6.12s.49,4.71,2.13,6.12c.8.68,1.79,1.29,3.23,1.29,1.82,0,3.08-.72,3.95-1.71Z"/>
  <path d="m1.94,27.08c0-2.47,1.6-5.74,6.84-6.04l5.85-.34v-1.33c0-2.74-1.41-3.99-4.18-3.99-2.62,0-4.41,1.33-4.41,3.5h-3.15c.08-3.91,3.38-6.12,7.56-6.12,4.48,0,7.37,2.36,7.37,6.65v9.31c0,1.03.42,1.29,1.06,1.29.15,0,.53-.04.84-.11v2.39c-.68.34-1.33.46-2.13.46-1.71,0-2.81-1.29-2.81-2.93-1.14,1.86-3.5,3.19-6.23,3.19-4.41,0-6.61-2.96-6.61-5.93Zm12.69-2.74v-1.14l-5.55.3c-1.9.11-3.84,1.14-3.84,3.5,0,1.6,1.06,3.31,3.8,3.31,3.5,0,5.58-2.62,5.58-5.97Z"/>
  <g>
    <line x1="952.68" y1="451.21" x2="725.52" y2="451.21" fill="none" stroke="#000" stroke-linecap="round" stroke-linejoin="round" stroke-width="2"/>
    <polygon points="950.49 443.77 963.44 451.25 950.49 458.73 950.49 443.77"/>
  </g>
  <g>
    <line x1="859.11" y1="570.54" x2="952.68" y2="570.54" fill="none" stroke="#000" stroke-linecap="round" stroke-linejoin="round" stroke-width="2"/>
    <polygon points="950.49 577.97 963.44 570.5 950.49 563.02 950.49 577.97"/>
  </g>
  <g>
    <line x1="859.11" y1="611.55" x2="952.68" y2="611.55" fill="none" stroke="#000" stroke-linecap="round" stroke-linejoin="round" stroke-width="2"/>
    <polygon points="950.49 618.99 963.44 611.51 950.49 604.03 950.49 618.99"/>
  </g>
  <g>
    <line x1="952.68" y1="732" x2="725.52" y2="732" fill="none" stroke="#000" stroke-linecap="round" stroke-linejoin="round" stroke-width="2"/>
    <polygon points="950.49 724.56 963.44 732.04 950.49 739.52 950.49 724.56"/>
  </g>
  <line x1="479.57" y1="591.95" x2="229.11" y2="591.95" fill="none" stroke="#000" stroke-linecap="round" stroke-linejoin="round" stroke-width="2"/>
  <rect x="585.51" y="17.67" width="218.49" height="156.16" fill="none" stroke="#000" stroke-linecap="round" stroke-linejoin="round" stroke-width="2"/>
  <g>
    <path d="m2.45,188.29h1.79c.38,3.26,2.88,5.38,6.59,5.38s6.56-1.86,6.56-5.06c0-2.14-1.7-3.94-4.42-4.32l-3.84-.54c-3.46-.48-5.89-2.27-5.89-5.7,0-3.68,3.71-6.37,7.74-6.37,4.38,0,7.52,2.75,7.81,6.46h-1.7c-.45-3.2-3.01-4.86-6.18-4.86-3.33,0-5.95,1.95-5.95,4.7s1.89,3.65,4.32,4l3.9.54c3.49.48,5.92,2.88,5.92,6.02,0,4.03-3.55,6.72-8.29,6.72s-8.19-2.82-8.38-6.98Z"/>
    <path d="m25.65,172.13v2.37h-2.18v-2.37h2.18Zm-.26,6.69v16h-1.63v-16h1.63Z"/>
    <path d="m31.31,178.81h1.47l.13,3.07c.83-2.21,3.33-3.52,5.57-3.52,3.65,0,5.66,2.43,5.66,5.98v10.46h-1.6v-10.3c0-2.69-1.38-4.58-4.22-4.58-3.55,0-5.41,2.94-5.41,6.5v8.38h-1.6v-16Z"/>
    <path d="m50.93,193.02c-1.31-1.54-2.11-3.71-2.11-6.14,0-2.02.32-4,1.6-5.7,1.38-1.82,3.26-2.82,5.6-2.82,4.42,0,7.07,3.52,7.07,7.78,0,.38,0,.61-.03,1.06h-12.64c.06,3.55,2.14,6.53,5.73,6.53,2.53,0,4.51-1.66,4.9-3.71h1.66c-.48,3.01-3.36,5.25-6.56,5.25-2.3,0-4.16-1.02-5.22-2.24Zm10.5-7.26c-.06-3.04-1.95-5.89-5.41-5.89s-5.5,2.75-5.57,5.89h10.98Z"/>
    <path d="m98.54,172.13l-4.67,22.69h-1.95l-5.98-19.93-5.98,19.93h-1.89l-4.67-22.69h1.57l4.22,20.48,6.02-20.13h1.57l6.08,20.06,4.13-20.41h1.57Z"/>
    <path d="m101.23,190.36c0-2.85,2.18-4.61,5.38-4.83l5.89-.42v-1.41c0-2.69-1.95-3.84-4.42-3.84s-4.38,1.15-4.54,3.55h-1.6c.22-3.3,2.88-5.06,6.08-5.06,3.65,0,6.08,1.79,6.08,5.47v7.9c0,1.09.16,1.73,1.25,1.73.13,0,.32,0,.45-.03v1.41c-.22.06-.51.1-.77.1-1.98,0-2.53-1.5-2.53-3.2-.86,2.27-3.3,3.52-5.76,3.52-3.1,0-5.5-1.89-5.5-4.9Zm11.26-2.94v-.83l-5.73.35c-2.46.16-3.9,1.5-3.9,3.39,0,2.24,1.73,3.46,4,3.46,4.03,0,5.63-3.26,5.63-6.37Z"/>
    <path d="m117.77,178.81h1.73l5.34,14.11,5.12-14.11h1.7l-5.98,16h-1.66l-6.24-16Z"/>
    <path d="m136.3,193.02c-1.31-1.54-2.11-3.71-2.11-6.14,0-2.02.32-4,1.6-5.7,1.38-1.82,3.26-2.82,5.6-2.82,4.42,0,7.07,3.52,7.07,7.78,0,.38,0,.61-.03,1.06h-12.64c.06,3.55,2.14,6.53,5.73,6.53,2.53,0,4.51-1.66,4.9-3.71h1.66c-.48,3.01-3.36,5.25-6.56,5.25-2.3,0-4.16-1.02-5.22-2.24Zm10.5-7.26c-.06-3.04-1.95-5.89-5.41-5.89s-5.5,2.75-5.57,5.89h10.98Z"/>
    <path d="m6.13,231.23c-2.53-2.43-3.1-6.11-3.1-9.34s.51-6.88,3.1-9.31c1.5-1.41,3.65-2.5,6.21-2.5s4.48.74,5.95,1.95c1.54,1.25,2.5,3.01,2.66,4.99h-1.73c-.13-1.38-.67-2.5-1.54-3.36-1.28-1.28-3.2-1.95-5.31-1.95s-3.71.74-4.93,1.89c-2.21,2.11-2.66,5.5-2.66,8.29s.42,6.34,2.69,8.35c1.28,1.15,2.91,1.79,4.86,1.79,4.64,0,6.91-3.3,6.91-7.84v-.93h-7.39v-1.63h9.02v11.58h-1.31l-.26-3.74c-1.06,2.37-3.65,4.19-6.98,4.19-2.56,0-4.74-1.02-6.21-2.43Z"/>
    <path d="m27.28,231.42c-1.31-1.54-2.11-3.71-2.11-6.14,0-2.02.32-4,1.6-5.7,1.38-1.82,3.26-2.82,5.6-2.82,4.42,0,7.07,3.52,7.07,7.78,0,.38,0,.61-.03,1.06h-12.64c.06,3.55,2.14,6.53,5.73,6.53,2.53,0,4.51-1.66,4.9-3.71h1.66c-.48,3.01-3.36,5.25-6.56,5.25-2.3,0-4.16-1.02-5.22-2.24Zm10.5-7.26c-.06-3.04-1.95-5.89-5.41-5.89s-5.5,2.75-5.57,5.89h10.98Z"/>
    <path d="m44.17,217.21h1.47l.13,3.07c.83-2.21,3.33-3.52,5.57-3.52,3.65,0,5.66,2.43,5.66,5.98v10.46h-1.6v-10.3c0-2.69-1.38-4.58-4.22-4.58-3.55,0-5.41,2.94-5.41,6.5v8.38h-1.6v-16Z"/>
    <path d="m63.79,231.42c-1.31-1.54-2.11-3.71-2.11-6.14,0-2.02.32-4,1.6-5.7,1.38-1.82,3.26-2.82,5.6-2.82,4.42,0,7.07,3.52,7.07,7.78,0,.38,0,.61-.03,1.06h-12.64c.06,3.55,2.14,6.53,5.73,6.53,2.53,0,4.51-1.66,4.9-3.71h1.66c-.48,3.01-3.36,5.25-6.56,5.25-2.3,0-4.16-1.02-5.22-2.24Zm10.5-7.26c-.06-3.04-1.95-5.89-5.41-5.89s-5.5,2.75-5.57,5.89h10.98Z"/>
    <path d="m80.69,217.21h1.47l.13,3.3c.7-2.24,2.88-3.46,5.15-3.46.48,0,1.02,0,1.5.16v1.54c-.51-.13-1.06-.16-1.57-.16-3.71,0-5.09,3.07-5.09,6.62v8h-1.6v-16Z"/>
    <path d="m91.47,228.76c0-2.85,2.18-4.61,5.38-4.83l5.89-.42v-1.41c0-2.69-1.95-3.84-4.42-3.84s-4.38,1.15-4.54,3.55h-1.6c.22-3.3,2.88-5.06,6.08-5.06,3.65,0,6.08,1.79,6.08,5.47v7.9c0,1.09.16,1.73,1.25,1.73.13,0,.32,0,.45-.03v1.41c-.22.06-.51.1-.77.1-1.98,0-2.53-1.5-2.53-3.2-.86,2.27-3.3,3.52-5.76,3.52-3.1,0-5.5-1.89-5.5-4.9Zm11.26-2.94v-.83l-5.73.35c-2.46.16-3.9,1.5-3.9,3.39,0,2.24,1.73,3.46,4,3.46,4.03,0,5.63-3.26,5.63-6.37Z"/>
    <path d="m111.98,229.05v-10.37h-3.78v-1.47h3.78v-4.42l1.6-.38v4.8h5.02v1.47h-5.02v10.14c0,1.76.54,3.1,2.88,3.1.86,0,1.54-.1,2.37-.29v1.41c-.8.26-1.6.38-2.5.38-3.14,0-4.35-1.82-4.35-4.38Z"/>
    <path d="m124.05,231.77c-1.76-1.7-2.43-3.81-2.43-6.56s.67-4.86,2.43-6.56c1.15-1.09,2.75-1.89,4.8-1.89s3.65.8,4.8,1.89c1.76,1.7,2.43,3.84,2.43,6.56s-.67,4.86-2.43,6.56c-1.15,1.09-2.75,1.89-4.8,1.89s-3.65-.8-4.8-1.89Zm8.48-1.09c1.5-1.47,1.92-3.36,1.92-5.47s-.42-4-1.92-5.47c-.86-.86-2.08-1.41-3.68-1.41s-2.82.54-3.68,1.41c-1.5,1.47-1.92,3.39-1.92,5.47s.42,4,1.92,5.47c.86.86,2.08,1.41,3.68,1.41s2.82-.54,3.68-1.41Z"/>
    <path d="m140.97,217.21h1.47l.13,3.3c.7-2.24,2.88-3.46,5.15-3.46.48,0,1.02,0,1.5.16v1.54c-.51-.13-1.06-.16-1.57-.16-3.71,0-5.09,3.07-5.09,6.62v8h-1.6v-16Z"/>
  </g>
  <g>
    <path d="m473.44,379.59v22.69h-1.63v-21.21l-8.29,20.89h-1.47l-8.29-20.73v21.05h-1.63v-22.69h2.62l8.1,20.29,7.94-20.29h2.66Z"/>
    <path d="m481.66,379.59v2.37h-2.18v-2.37h2.18Zm-.26,6.69v16h-1.63v-16h1.63Z"/>
    <path d="m485.37,386.28h1.95l4.83,6.78,4.86-6.78h1.89l-5.7,7.81,5.76,8.19h-1.95l-4.9-7.07-4.93,7.07h-1.92l5.76-8.19-5.66-7.81Z"/>
    <path d="m503.9,400.49c-1.31-1.54-2.11-3.71-2.11-6.14,0-2.02.32-4,1.6-5.7,1.38-1.82,3.26-2.82,5.6-2.82,4.42,0,7.07,3.52,7.07,7.78,0,.38,0,.61-.03,1.06h-12.64c.06,3.55,2.14,6.53,5.73,6.53,2.53,0,4.51-1.66,4.9-3.71h1.66c-.48,3.01-3.36,5.25-6.56,5.25-2.3,0-4.16-1.02-5.22-2.24Zm10.5-7.26c-.06-3.04-1.95-5.89-5.41-5.89s-5.5,2.75-5.57,5.89h10.98Z"/>
    <path d="m520.8,386.28h1.47l.13,3.3c.7-2.24,2.88-3.46,5.15-3.46.48,0,1.02,0,1.5.16v1.54c-.51-.13-1.06-.16-1.57-.16-3.71,0-5.09,3.07-5.09,6.62v8h-1.6v-16Z"/>
  </g>
  <g>
    <path d="m473.44,773.54v22.69h-1.63v-21.21l-8.29,20.89h-1.47l-8.29-20.73v21.05h-1.63v-22.69h2.62l8.1,20.29,7.94-20.29h2.66Z"/>
    <path d="m481.66,773.54v2.37h-2.18v-2.37h2.18Zm-.26,6.69v16h-1.63v-16h1.63Z"/>
    <path d="m485.37,780.23h1.95l4.83,6.78,4.86-6.78h1.89l-5.7,7.81,5.76,8.19h-1.95l-4.9-7.07-4.93,7.07h-1.92l5.76-8.19-5.66-7.81Z"/>
    <path d="m503.9,794.43c-1.31-1.54-2.11-3.71-2.11-6.14,0-2.02.32-4,1.6-5.7,1.38-1.82,3.26-2.82,5.6-2.82,4.42,0,7.07,3.52,7.07,7.78,0,.38,0,.61-.03,1.06h-12.64c.06,3.55,2.14,6.53,5.73,6.53,2.53,0,4.51-1.66,4.9-3.71h1.66c-.48,3.01-3.36,5.25-6.56,5.25-2.3,0-4.16-1.02-5.22-2.24Zm10.5-7.26c-.06-3.04-1.95-5.89-5.41-5.89s-5.5,2.75-5.57,5.89h10.98Z"/>
    <path d="m520.8,780.23h1.47l.13,3.3c.7-2.24,2.88-3.46,5.15-3.46.48,0,1.02,0,1.5.16v1.54c-.51-.13-1.06-.16-1.57-.16-3.71,0-5.09,3.07-5.09,6.62v8h-1.6v-16Z"/>
  </g>
  <g>
    <path d="m133.14,656.63c-2.62-2.5-3.01-6.21-3.01-9.47s.38-6.98,3.01-9.44c1.47-1.38,3.46-2.34,5.98-2.34s4.51.99,5.95,2.34c2.66,2.46,3.04,6.18,3.04,9.44s-.38,7.01-3.04,9.47c-1.44,1.34-3.42,2.34-5.95,2.34s-4.54-.96-5.98-2.34Zm10.72-1.09c2.27-2.18,2.5-5.7,2.5-8.38s-.22-6.18-2.5-8.35c-1.22-1.15-2.91-1.79-4.74-1.79s-3.52.61-4.74,1.79c-2.27,2.21-2.53,5.66-2.53,8.35s.22,6.18,2.53,8.38c1.22,1.15,2.91,1.79,4.74,1.79s3.52-.64,4.74-1.79Z"/>
    <path d="m151.67,653.66h1.63c.26,2.62,2.34,3.78,4.96,3.78s4.64-1.15,4.64-3.33c0-1.41-.99-2.59-2.94-2.85l-3.1-.42c-2.69-.35-4.51-1.63-4.51-4.06,0-2.85,2.75-4.7,5.76-4.7,3.46,0,5.95,1.98,6.05,4.86h-1.6c-.22-2.3-2.11-3.36-4.45-3.36s-4.13,1.25-4.13,3.04c0,1.31.7,2.3,3.1,2.62l3.04.42c3.01.42,4.42,2.43,4.42,4.35,0,3.26-2.94,4.96-6.27,4.96-3.81,0-6.43-2.02-6.59-5.31Z"/>
    <path d="m170.35,657.05c-1.7-1.7-2.3-3.81-2.3-6.53s.58-4.9,2.3-6.56c1.15-1.12,2.78-1.89,4.83-1.89,3.39,0,5.98,2.08,6.37,5.41h-1.7c-.35-2.21-2.18-3.84-4.67-3.84-1.57,0-2.82.51-3.68,1.38-1.5,1.5-1.82,3.39-1.82,5.5s.35,3.97,1.86,5.47c.86.86,2.11,1.38,3.68,1.38,2.5,0,4.32-1.63,4.67-3.84h1.66c-.42,3.29-3.01,5.41-6.37,5.41-2.05,0-3.68-.74-4.83-1.89Z"/>
    <path d="m188.05,635.83v2.37h-2.18v-2.37h2.18Zm-.26,6.69v16h-1.63v-16h1.63Z"/>
    <path d="m193.65,655.32v-19.97h1.6v19.9c0,1.09.32,1.92,1.66,1.92.64,0,.93-.03,1.38-.1v1.44c-.35.1-.77.19-1.44.19-2.05,0-3.2-1.06-3.2-3.39Z"/>
    <path d="m201.74,655.32v-19.97h1.6v19.9c0,1.09.32,1.92,1.66,1.92.64,0,.93-.03,1.38-.1v1.44c-.35.1-.77.19-1.44.19-2.05,0-3.2-1.06-3.2-3.39Z"/>
    <path d="m208.59,654.07c0-2.85,2.18-4.61,5.38-4.83l5.89-.42v-1.41c0-2.69-1.95-3.84-4.42-3.84s-4.38,1.15-4.54,3.55h-1.6c.22-3.29,2.88-5.06,6.08-5.06,3.65,0,6.08,1.79,6.08,5.47v7.9c0,1.09.16,1.73,1.25,1.73.13,0,.32,0,.45-.03v1.41c-.22.06-.51.1-.77.1-1.98,0-2.53-1.5-2.53-3.2-.86,2.27-3.3,3.52-5.76,3.52-3.1,0-5.5-1.89-5.5-4.9Zm11.26-2.94v-.83l-5.73.35c-2.46.16-3.9,1.5-3.9,3.39,0,2.24,1.73,3.46,4,3.46,4.03,0,5.63-3.26,5.63-6.37Z"/>
    <path d="m229.1,654.36v-10.37h-3.78v-1.47h3.78v-4.42l1.6-.38v4.8h5.02v1.47h-5.02v10.14c0,1.76.54,3.1,2.88,3.1.86,0,1.54-.1,2.37-.29v1.41c-.8.26-1.6.38-2.5.38-3.14,0-4.35-1.82-4.35-4.38Z"/>
    <path d="m241.17,657.08c-1.76-1.7-2.43-3.81-2.43-6.56s.67-4.86,2.43-6.56c1.15-1.09,2.75-1.89,4.8-1.89s3.65.8,4.8,1.89c1.76,1.7,2.43,3.84,2.43,6.56s-.67,4.86-2.43,6.56c-1.15,1.09-2.75,1.89-4.8,1.89s-3.65-.8-4.8-1.89Zm8.48-1.09c1.5-1.47,1.92-3.36,1.92-5.47s-.42-4-1.92-5.47c-.86-.86-2.08-1.41-3.68-1.41s-2.82.54-3.68,1.41c-1.5,1.47-1.92,3.39-1.92,5.47s.42,4,1.92,5.47c.86.86,2.08,1.41,3.68,1.41s2.82-.54,3.68-1.41Z"/>
    <path d="m258.09,642.52h1.47l.13,3.3c.7-2.24,2.88-3.46,5.15-3.46.48,0,1.02,0,1.5.16v1.54c-.51-.13-1.06-.16-1.57-.16-3.71,0-5.09,3.07-5.09,6.62v8h-1.6v-16Z"/>
  </g>
  <g>
    <path d="m273.79,556.24c4.96,0,7.65,2.56,7.65,6.46,0,3.04-2.11,5.44-5.31,6.05l5.12,10.18h-1.82l-4.9-9.79h-7.36v9.79h-1.66v-22.69h8.29Zm5.92,6.46c0-3.2-2.18-4.9-5.92-4.9h-6.62v9.79h6.62c3.74,0,5.92-1.7,5.92-4.9Z"/>
    <path d="m287.19,577.14c-1.31-1.54-2.11-3.71-2.11-6.14,0-2.02.32-4,1.6-5.7,1.38-1.82,3.26-2.82,5.6-2.82,4.42,0,7.07,3.52,7.07,7.78,0,.38,0,.61-.03,1.06h-12.64c.06,3.55,2.14,6.53,5.73,6.53,2.53,0,4.51-1.66,4.9-3.71h1.66c-.48,3.01-3.36,5.25-6.56,5.25-2.3,0-4.16-1.02-5.22-2.24Zm10.5-7.26c-.06-3.04-1.95-5.89-5.41-5.89s-5.5,2.75-5.57,5.89h10.98Z"/>
    <path d="m305.4,564.4h-3.39v-1.47h3.39v-2.72c0-2.43,1.54-4.58,4.61-4.58.93,0,1.66.1,2.27.26v1.44c-.58-.16-1.22-.26-2.14-.26-2.08,0-3.14,1.15-3.14,3.2v2.66h4.96v1.47h-4.96v14.53h-1.6v-14.53Z"/>
    <path d="m316.63,577.14c-1.31-1.54-2.11-3.71-2.11-6.14,0-2.02.32-4,1.6-5.7,1.38-1.82,3.26-2.82,5.6-2.82,4.42,0,7.07,3.52,7.07,7.78,0,.38,0,.61-.03,1.06h-12.64c.06,3.55,2.14,6.53,5.73,6.53,2.53,0,4.51-1.66,4.9-3.71h1.66c-.48,3.01-3.36,5.25-6.56,5.25-2.3,0-4.16-1.02-5.22-2.24Zm10.5-7.26c-.06-3.04-1.95-5.89-5.41-5.89s-5.5,2.75-5.57,5.89h10.98Z"/>
    <path d="m333.53,562.93h1.47l.13,3.3c.7-2.24,2.88-3.46,5.15-3.46.48,0,1.02,0,1.5.16v1.54c-.51-.13-1.06-.16-1.57-.16-3.71,0-5.09,3.07-5.09,6.62v8h-1.6v-16Z"/>
    <path d="m346.65,577.14c-1.31-1.54-2.11-3.71-2.11-6.14,0-2.02.32-4,1.6-5.7,1.38-1.82,3.26-2.82,5.6-2.82,4.42,0,7.07,3.52,7.07,7.78,0,.38,0,.61-.03,1.06h-12.64c.06,3.55,2.14,6.53,5.73,6.53,2.53,0,4.51-1.66,4.9-3.71h1.66c-.48,3.01-3.36,5.25-6.56,5.25-2.3,0-4.16-1.02-5.22-2.24Zm10.5-7.26c-.06-3.04-1.95-5.89-5.41-5.89s-5.5,2.75-5.57,5.89h10.98Z"/>
    <path d="m363.54,562.93h1.47l.13,3.07c.83-2.21,3.33-3.52,5.57-3.52,3.65,0,5.66,2.43,5.66,5.98v10.46h-1.6v-10.3c0-2.69-1.38-4.58-4.22-4.58-3.55,0-5.41,2.94-5.41,6.5v8.38h-1.6v-16Z"/>
    <path d="m383.38,577.46c-1.7-1.7-2.3-3.81-2.3-6.53s.58-4.9,2.3-6.56c1.15-1.12,2.78-1.89,4.83-1.89,3.39,0,5.98,2.08,6.37,5.41h-1.7c-.35-2.21-2.18-3.84-4.67-3.84-1.57,0-2.82.51-3.68,1.38-1.5,1.5-1.82,3.39-1.82,5.5s.35,3.97,1.86,5.47c.86.86,2.11,1.38,3.68,1.38,2.5,0,4.32-1.63,4.67-3.84h1.66c-.42,3.3-3.01,5.41-6.37,5.41-2.05,0-3.68-.74-4.83-1.89Z"/>
    <path d="m400.22,577.14c-1.31-1.54-2.11-3.71-2.11-6.14,0-2.02.32-4,1.6-5.7,1.38-1.82,3.26-2.82,5.6-2.82,4.42,0,7.07,3.52,7.07,7.78,0,.38,0,.61-.03,1.06h-12.64c.06,3.55,2.14,6.53,5.73,6.53,2.53,0,4.51-1.66,4.9-3.71h1.66c-.48,3.01-3.36,5.25-6.56,5.25-2.3,0-4.16-1.02-5.22-2.24Zm10.5-7.26c-.06-3.04-1.95-5.89-5.41-5.89s-5.5,2.75-5.57,5.89h10.98Z"/>
  </g>
  <g>
    <path d="m263.55,619.77h1.79c.38,3.26,2.88,5.38,6.59,5.38s6.56-1.86,6.56-5.06c0-2.14-1.7-3.94-4.42-4.32l-3.84-.54c-3.46-.48-5.89-2.27-5.89-5.7,0-3.68,3.71-6.37,7.74-6.37,4.38,0,7.52,2.75,7.81,6.46h-1.7c-.45-3.2-3.01-4.86-6.18-4.86-3.33,0-5.95,1.95-5.95,4.7s1.89,3.65,4.32,4l3.9.54c3.49.48,5.92,2.88,5.92,6.02,0,4.03-3.55,6.72-8.29,6.72s-8.19-2.82-8.38-6.98Z"/>
    <path d="m286.75,603.61v2.37h-2.18v-2.37h2.18Zm-.26,6.69v16h-1.63v-16h1.63Z"/>
    <path d="m291.04,628.57c0-1.66,1.09-3.1,2.82-3.58-1.22-.26-2.11-1.31-2.11-2.5,0-1.34.93-2.34,2.24-2.82-1.15-.96-1.86-2.4-1.86-4.19,0-3.46,2.75-5.63,5.98-5.63,1.44,0,2.75.42,3.84,1.12.38-1.41,1.7-2.21,3.14-2.21.19,0,.45.03.61.06v1.34c-.16-.03-.42-.03-.61-.03-1.15,0-1.98.64-2.21,1.73.8.93,1.28,2.14,1.28,3.62,0,3.46-2.72,5.54-6.05,5.54-1.22,0-2.34-.26-3.26-.77-.86.35-1.66.96-1.66,1.92,0,1.47,1.6,1.66,2.88,1.66h3.3c2.46,0,4,.42,5.09,1.44.77.74,1.22,1.6,1.22,2.94,0,3.58-3.74,4.9-7.55,4.9s-7.07-1.38-7.07-4.54Zm13.02-.29c0-2.3-2.08-2.94-4.58-2.94h-4.29c-1.44.35-2.66,1.22-2.66,3.07,0,2.5,2.78,3.26,5.6,3.26,3.04,0,5.92-.77,5.92-3.39Zm-1.5-12.8c0-2.66-1.95-4.22-4.45-4.22s-4.42,1.57-4.42,4.22,1.92,4.13,4.42,4.13,4.45-1.5,4.45-4.13Z"/>
    <path d="m309.69,610.3h1.47l.13,3.07c.83-2.21,3.33-3.52,5.57-3.52,3.65,0,5.66,2.43,5.66,5.98v10.46h-1.6v-10.3c0-2.69-1.38-4.58-4.22-4.58-3.55,0-5.41,2.94-5.41,6.5v8.38h-1.6v-16Z"/>
    <path d="m326.97,621.85c0-2.85,2.18-4.61,5.38-4.83l5.89-.42v-1.41c0-2.69-1.95-3.84-4.42-3.84s-4.38,1.15-4.54,3.55h-1.6c.22-3.29,2.88-5.06,6.08-5.06,3.65,0,6.08,1.79,6.08,5.47v7.9c0,1.09.16,1.73,1.25,1.73.13,0,.32,0,.45-.03v1.41c-.22.06-.51.1-.77.1-1.98,0-2.53-1.5-2.53-3.2-.86,2.27-3.3,3.52-5.76,3.52-3.1,0-5.5-1.89-5.5-4.9Zm11.26-2.94v-.83l-5.73.35c-2.46.16-3.9,1.5-3.9,3.39,0,2.24,1.73,3.46,4,3.46,4.03,0,5.63-3.26,5.63-6.37Z"/>
    <path d="m345.79,623.1v-19.97h1.6v19.9c0,1.09.32,1.92,1.66,1.92.64,0,.93-.03,1.38-.1v1.44c-.35.1-.77.19-1.44.19-2.05,0-3.2-1.06-3.2-3.39Z"/>
    <path d="m360.73,603.61l7.2,20.54,7.1-20.54h1.76l-8.06,22.69h-1.7l-8.06-22.69h1.76Z"/>
    <path d="m379.01,627.62h.86l.07,1.92c.41-1.31,1.68-2.02,3-2.02.28,0,.6,0,.88.09v.9c-.3-.08-.62-.09-.91-.09-2.16,0-2.97,1.79-2.97,3.86v4.67h-.93v-9.33Z"/>
    <path d="m386.73,615.96c0-4.99,1.82-10.56,5.28-14.43l.99.77c-3.14,4.03-4.77,8.42-4.77,13.66s1.63,9.63,4.77,13.66l-.99.77c-3.46-3.87-5.28-9.44-5.28-14.43Z"/>
    <path d="m398.25,622.14v-10.37h-3.78v-1.47h3.78v-4.42l1.6-.38v4.8h5.02v1.47h-5.02v10.14c0,1.76.54,3.1,2.88,3.1.86,0,1.54-.1,2.37-.29v1.41c-.8.26-1.6.38-2.5.38-3.14,0-4.35-1.82-4.35-4.38Z"/>
    <path d="m406.6,629.63c3.14-4.03,4.77-8.42,4.77-13.66s-1.63-9.63-4.77-13.66l.99-.77c3.46,3.87,5.28,9.44,5.28,14.43s-1.82,10.56-5.28,14.43l-.99-.77Z"/>
  </g>
  <g>
    <path d="m511.67,451.22c0,17.36-14.08,31.45-31.46,31.45s-31.45-14.09-31.45-31.45,14.09-31.46,31.45-31.46,31.46,14.08,31.46,31.46Z" fill="none" stroke="#000" stroke-miterlimit="10" stroke-width="2"/>
    <line x1="462.2" y1="433.2" x2="498.23" y2="469.22" fill="none" stroke="#000" stroke-linecap="round" stroke-linejoin="round" stroke-width="3"/>
    <line x1="462.2" y1="469.22" x2="498.23" y2="433.2" fill="none" stroke="#000" stroke-linecap="round" stroke-linejoin="round" stroke-width="3"/>
  </g>
  <g>
    <path d="m511.67,732c0,17.36-14.08,31.45-31.46,31.45s-31.45-14.09-31.45-31.45,14.09-31.46,31.45-31.46,31.46,14.08,31.46,31.46Z" fill="none" stroke="#000" stroke-miterlimit="10" stroke-width="2"/>
    <line x1="462.2" y1="713.98" x2="498.23" y2="750.01" fill="none" stroke="#000" stroke-linecap="round" stroke-linejoin="round" stroke-width="3"/>
    <line x1="462.2" y1="750.01" x2="498.23" y2="713.98" fill="none" stroke="#000" stroke-linecap="round" stroke-linejoin="round" stroke-width="3"/>
  </g>
  <g>
    <path d="m64.34,128.8c0,17.48-14.17,31.66-31.65,31.66S1.04,146.28,1.04,128.8s14.18-31.66,31.65-31.66,31.65,14.17,31.65,31.66Z" fill="none" stroke="#000" stroke-miterlimit="10" stroke-width="2"/>
    <g>
      <path d="m32.9,128.79s14.6,17.12,19.11-1.48" fill="none" stroke="#000" stroke-linecap="round" stroke-linejoin="round" stroke-width="3"/>
      <path d="m32.86,128.8s-14.6-17.11-19.12,1.49" fill="none" stroke="#000" stroke-linecap="round" stroke-linejoin="round" stroke-width="3"/>
    </g>
  </g>
  <g>
    <rect x="663.82" y="420.79" width="61.7" height="61.69" fill="none" stroke="#000" stroke-linecap="round" stroke-linejoin="round" stroke-width="2"/>
    <polyline points="674.77 438.7 702.09 438.7 714.97 463.29" fill="none" stroke="#000" stroke-linecap="round" stroke-linejoin="round" stroke-width="3"/>
  </g>
  <g>
    <rect x="663.82" y="701.2" width="61.7" height="61.69" fill="none" stroke="#000" stroke-linecap="round" stroke-linejoin="round" stroke-width="2"/>
    <polyline points="674.77 719.11 702.09 719.11 714.97 743.7" fill="none" stroke="#000" stroke-linecap="round" stroke-linejoin="round" stroke-width="3"/>
  </g>
  <g>
    <path d="m229.11,592.51c0,17.48-14.17,31.66-31.65,31.66s-31.65-14.18-31.65-31.66,14.18-31.66,31.65-31.66,31.65,14.17,31.65,31.66Z" fill="none" stroke="#000" stroke-miterlimit="10" stroke-width="2"/>
    <g>
      <path d="m197.66,592.5s14.6,17.12,19.11-1.48" fill="none" stroke="#000" stroke-linecap="round" stroke-linejoin="round" stroke-width="3"/>
      <path d="m197.63,592.51s-14.6-17.11-19.12,1.49" fill="none" stroke="#000" stroke-linecap="round" stroke-linejoin="round" stroke-width="3"/>
    </g>
  </g>
  <g>
    <rect x="797.43" y="559.81" width="61.68" height="61.68" fill="none" stroke="#000" stroke-linecap="round" stroke-linejoin="round" stroke-width="2"/>
    <g>
      <path d="m843.2,613.19h-34.93c-.83,0-1.5-.67-1.5-1.5v-34.93c0-.83.67-1.5,1.5-1.5s1.5.67,1.5,1.5v33.43h33.43c.83,0,1.5.67,1.5,1.5s-.67,1.5-1.5,1.5Z"/>
      <polygon points="841.89 607.23 849.66 611.71 841.89 616.2 841.89 607.23"/>
      <polygon points="812.74 578.08 808.25 570.31 803.77 578.08 812.74 578.08"/>
    </g>
    <path d="m808.28,590.99s20.69.27,20.69,20.7" fill="none" stroke="#000" stroke-linecap="round" stroke-linejoin="round" stroke-width="3"/>
  </g>
  <g>
    <path d="m668.31,496.55v18.87h10.52v1.4h-12.01v-20.27h1.49Z"/>
    <path d="m682.72,515.54c-1.57-1.52-2.17-3.4-2.17-5.86s.6-4.35,2.17-5.86c1.03-.97,2.46-1.69,4.29-1.69s3.26.71,4.29,1.69c1.57,1.52,2.17,3.43,2.17,5.86s-.6,4.35-2.17,5.86c-1.03.97-2.46,1.69-4.29,1.69s-3.26-.71-4.29-1.69Zm7.58-.97c1.34-1.32,1.72-3,1.72-4.89s-.37-3.57-1.72-4.89c-.77-.77-1.86-1.26-3.29-1.26s-2.52.49-3.29,1.26c-1.34,1.32-1.72,3.03-1.72,4.89s.37,3.57,1.72,4.89c.77.77,1.86,1.26,3.29,1.26s2.52-.49,3.29-1.26Z"/>
    <path d="m715.52,502.53l-3.66,14.3h-1.74l-4.32-12.47-4.32,12.47h-1.74l-3.66-14.3h1.46l3.15,12.64,4.35-12.44h1.57l4.29,12.38,3.23-12.58h1.4Z"/>
    <path d="m732.77,496.55c3.75,0,6.66,1.8,6.66,5.78s-2.92,5.78-6.66,5.78h-5.63v8.72h-1.49v-20.27h7.12Zm5.12,5.78c0-3.15-2.26-4.35-5.2-4.35h-5.55v8.69h5.55c2.95,0,5.2-1.2,5.2-4.35Z"/>
    <path d="m741.72,512.85c0-2.54,1.94-4.12,4.8-4.32l5.26-.37v-1.26c0-2.4-1.74-3.43-3.95-3.43s-3.92,1.03-4.06,3.17h-1.43c.2-2.95,2.57-4.52,5.43-4.52,3.26,0,5.43,1.6,5.43,4.89v7.06c0,.97.14,1.54,1.12,1.54.11,0,.29,0,.4-.03v1.26c-.2.06-.46.09-.69.09-1.77,0-2.26-1.34-2.26-2.86-.77,2.03-2.95,3.15-5.15,3.15-2.77,0-4.92-1.69-4.92-4.38Zm10.07-2.63v-.74l-5.12.31c-2.2.14-3.49,1.34-3.49,3.03,0,2,1.54,3.09,3.57,3.09,3.6,0,5.03-2.92,5.03-5.69Z"/>
    <path d="m757.31,512.48h1.46c.23,2.35,2.09,3.37,4.43,3.37s4.15-1.03,4.15-2.97c0-1.26-.89-2.32-2.63-2.54l-2.77-.37c-2.4-.31-4.03-1.46-4.03-3.63,0-2.54,2.46-4.2,5.15-4.2,3.09,0,5.32,1.77,5.4,4.35h-1.43c-.2-2.06-1.89-3-3.97-3s-3.69,1.12-3.69,2.72c0,1.17.63,2.06,2.77,2.34l2.72.37c2.69.37,3.95,2.17,3.95,3.89,0,2.92-2.63,4.43-5.6,4.43-3.4,0-5.75-1.8-5.89-4.75Z"/>
    <path d="m771.61,512.48h1.46c.23,2.35,2.09,3.37,4.43,3.37s4.15-1.03,4.15-2.97c0-1.26-.89-2.32-2.63-2.54l-2.77-.37c-2.4-.31-4.03-1.46-4.03-3.63,0-2.54,2.46-4.2,5.15-4.2,3.09,0,5.32,1.77,5.4,4.35h-1.43c-.2-2.06-1.89-3-3.97-3s-3.69,1.12-3.69,2.72c0,1.17.63,2.06,2.77,2.34l2.72.37c2.69.37,3.95,2.17,3.95,3.89,0,2.92-2.63,4.43-5.61,4.43-3.4,0-5.75-1.8-5.89-4.75Z"/>
  </g>
  <g>
    <path d="m668.31,776.97v18.87h10.52v1.4h-12.01v-20.27h1.49Z"/>
    <path d="m682.72,795.95c-1.57-1.52-2.17-3.4-2.17-5.86s.6-4.35,2.17-5.86c1.03-.97,2.46-1.69,4.29-1.69s3.26.71,4.29,1.69c1.57,1.52,2.17,3.43,2.17,5.86s-.6,4.35-2.17,5.86c-1.03.97-2.46,1.69-4.29,1.69s-3.26-.71-4.29-1.69Zm7.58-.97c1.34-1.32,1.72-3,1.72-4.89s-.37-3.57-1.72-4.89c-.77-.77-1.86-1.26-3.29-1.26s-2.52.49-3.29,1.26c-1.34,1.32-1.72,3.03-1.72,4.89s.37,3.57,1.72,4.89c.77.77,1.86,1.26,3.29,1.26s2.52-.49,3.29-1.26Z"/>
    <path d="m715.52,782.94l-3.66,14.3h-1.74l-4.32-12.47-4.32,12.47h-1.74l-3.66-14.3h1.46l3.15,12.64,4.35-12.44h1.57l4.29,12.38,3.23-12.58h1.4Z"/>
    <path d="m732.77,776.97c3.75,0,6.66,1.8,6.66,5.78s-2.92,5.78-6.66,5.78h-5.63v8.72h-1.49v-20.27h7.12Zm5.12,5.78c0-3.15-2.26-4.35-5.2-4.35h-5.55v8.69h5.55c2.95,0,5.2-1.2,5.2-4.35Z"/>
    <path d="m741.72,793.27c0-2.54,1.94-4.12,4.8-4.32l5.26-.37v-1.26c0-2.4-1.74-3.43-3.95-3.43s-3.92,1.03-4.06,3.17h-1.43c.2-2.95,2.57-4.52,5.43-4.52,3.26,0,5.43,1.6,5.43,4.89v7.06c0,.97.14,1.54,1.12,1.54.11,0,.29,0,.4-.03v1.26c-.2.06-.46.09-.69.09-1.77,0-2.26-1.34-2.26-2.86-.77,2.03-2.95,3.15-5.15,3.15-2.77,0-4.92-1.69-4.92-4.38Zm10.07-2.63v-.74l-5.12.31c-2.2.14-3.49,1.34-3.49,3.03,0,2,1.54,3.09,3.57,3.09,3.6,0,5.03-2.92,5.03-5.69Z"/>
    <path d="m757.31,792.89h1.46c.23,2.34,2.09,3.37,4.43,3.37s4.15-1.03,4.15-2.97c0-1.26-.89-2.32-2.63-2.54l-2.77-.37c-2.4-.31-4.03-1.46-4.03-3.63,0-2.54,2.46-4.2,5.15-4.2,3.09,0,5.32,1.77,5.4,4.35h-1.43c-.2-2.06-1.89-3-3.97-3s-3.69,1.12-3.69,2.72c0,1.17.63,2.06,2.77,2.34l2.72.37c2.69.37,3.95,2.17,3.95,3.89,0,2.92-2.63,4.43-5.6,4.43-3.4,0-5.75-1.8-5.89-4.75Z"/>
    <path d="m771.61,792.89h1.46c.23,2.34,2.09,3.37,4.43,3.37s4.15-1.03,4.15-2.97c0-1.26-.89-2.32-2.63-2.54l-2.77-.37c-2.4-.31-4.03-1.46-4.03-3.63,0-2.54,2.46-4.2,5.15-4.2,3.09,0,5.32,1.77,5.4,4.35h-1.43c-.2-2.06-1.89-3-3.97-3s-3.69,1.12-3.69,2.72c0,1.17.63,2.06,2.77,2.34l2.72.37c2.69.37,3.95,2.17,3.95,3.89,0,2.92-2.63,4.43-5.61,4.43-3.4,0-5.75-1.8-5.89-4.75Z"/>
  </g>
  <g>
    <path d="m620.36,35.58v21.12h11.78v1.57h-13.44v-22.69h1.66Z"/>
    <path d="m636.49,56.83c-1.76-1.7-2.43-3.81-2.43-6.56s.67-4.86,2.43-6.56c1.15-1.09,2.75-1.89,4.8-1.89s3.65.8,4.8,1.89c1.76,1.7,2.43,3.84,2.43,6.56s-.67,4.86-2.43,6.56c-1.15,1.09-2.75,1.89-4.8,1.89s-3.65-.8-4.8-1.89Zm8.48-1.09c1.5-1.47,1.92-3.36,1.92-5.47s-.42-4-1.92-5.47c-.86-.86-2.08-1.41-3.68-1.41s-2.82.54-3.68,1.41c-1.5,1.47-1.92,3.39-1.92,5.47s.42,4,1.92,5.47c.86.86,2.08,1.41,3.68,1.41s2.82-.54,3.68-1.41Z"/>
    <path d="m654.67,56.8c-1.7-1.7-2.3-3.81-2.3-6.53s.58-4.9,2.3-6.56c1.15-1.12,2.78-1.89,4.83-1.89,3.39,0,5.98,2.08,6.37,5.41h-1.7c-.35-2.21-2.18-3.84-4.67-3.84-1.57,0-2.82.51-3.68,1.38-1.5,1.5-1.82,3.39-1.82,5.5s.35,3.97,1.86,5.47c.86.86,2.11,1.38,3.68,1.38,2.5,0,4.32-1.63,4.67-3.84h1.66c-.42,3.3-3.01,5.41-6.37,5.41-2.05,0-3.68-.74-4.83-1.89Z"/>
    <path d="m670.47,35.1h1.63v16.9l8.96-9.73h2.05l-6.24,6.72,6.37,9.28h-1.98l-5.54-8.1-3.62,3.97v4.13h-1.63v-23.17Z"/>
    <path d="m692.23,47.87v1.47h-7.97v-1.47h7.97Z"/>
    <path d="m699.18,35.58v2.37h-2.18v-2.37h2.18Zm-.26,6.69v16h-1.63v-16h1.63Z"/>
    <path d="m704.84,42.27h1.47l.13,3.07c.83-2.21,3.33-3.52,5.57-3.52,3.65,0,5.66,2.43,5.66,5.98v10.46h-1.6v-10.3c0-2.69-1.38-4.58-4.22-4.58-3.55,0-5.41,2.94-5.41,6.5v8.38h-1.6v-16Z"/>
    <path d="m630.89,89.54h-10.75l-2.72,7.14h-1.76l8.8-22.69h2.02l8.9,22.69h-1.73l-2.75-7.14Zm-.61-1.54l-4.83-12.48-4.74,12.48h9.57Z"/>
    <path d="m638.6,80.67h1.47l.13,3.14c.74-2.14,2.69-3.58,5.02-3.58,2.75,0,4.35,1.41,4.99,3.46.86-1.98,2.59-3.46,5.28-3.46,3.74,0,5.31,2.46,5.31,5.89v10.56h-1.6v-10.37c0-2.82-1.09-4.58-3.87-4.58-3.01,0-4.77,2.66-4.77,5.89v9.06h-1.66v-10.37c0-2.82-1.22-4.58-3.87-4.58-3.07,0-4.83,2.88-4.83,6.3v8.64h-1.6v-16Z"/>
    <path d="m666.57,80.67h1.47l.13,3.04c.9-2.11,3.26-3.49,5.47-3.49,1.89,0,3.3.61,4.38,1.54,1.86,1.57,2.69,4.03,2.69,6.88s-.8,5.18-2.53,6.78c-1.09,1.02-2.59,1.7-4.51,1.7-2.34,0-4.61-1.31-5.5-3.36v9.28h-1.6v-22.37Zm10.69,13.44c1.28-1.38,1.82-3.39,1.82-5.44,0-2.27-.64-4.42-2.18-5.73-.8-.7-1.89-1.15-3.3-1.15s-2.53.54-3.36,1.31c-1.47,1.41-2.11,3.36-2.11,5.57,0,2.37.58,4.22,2.08,5.6.83.77,1.95,1.28,3.46,1.28s2.75-.54,3.58-1.44Z"/>
    <path d="m685.55,93.47v-19.97h1.6v19.9c0,1.09.32,1.92,1.66,1.92.64,0,.93-.03,1.38-.1v1.44c-.35.1-.77.19-1.44.19-2.05,0-3.2-1.06-3.2-3.39Z"/>
    <path d="m695.59,73.98v2.37h-2.18v-2.37h2.18Zm-.26,6.69v16h-1.63v-16h1.63Z"/>
    <path d="m702.57,82.14h-3.39v-1.47h3.39v-2.72c0-2.43,1.54-4.58,4.61-4.58.93,0,1.66.1,2.27.26v1.44c-.58-.16-1.22-.26-2.14-.26-2.08,0-3.14,1.15-3.14,3.2v2.66h4.96v1.47h-4.96v14.53h-1.6v-14.53Z"/>
    <path d="m714.67,73.98v2.37h-2.18v-2.37h2.18Zm-.26,6.69v16h-1.63v-16h1.63Z"/>
    <path d="m721.35,94.88c-1.31-1.54-2.11-3.71-2.11-6.14,0-2.02.32-4,1.6-5.7,1.38-1.82,3.26-2.82,5.6-2.82,4.42,0,7.07,3.52,7.07,7.78,0,.38,0,.61-.03,1.06h-12.64c.06,3.55,2.14,6.53,5.73,6.53,2.53,0,4.51-1.66,4.9-3.71h1.66c-.48,3.01-3.36,5.25-6.56,5.25-2.3,0-4.16-1.02-5.22-2.24Zm10.5-7.26c-.06-3.04-1.95-5.89-5.41-5.89s-5.5,2.75-5.57,5.89h10.98Z"/>
    <path d="m738.25,80.67h1.47l.13,3.3c.7-2.24,2.88-3.46,5.15-3.46.48,0,1.02,0,1.5.16v1.54c-.51-.13-1.06-.16-1.57-.16-3.71,0-5.09,3.07-5.09,6.62v8h-1.6v-16Z"/>
  </g>
</svg>